<?xml version="1.0" encoding="UTF-8"?>
<!--Generator: Apple Native CoreSVG 149-->
<!DOCTYPE svg
PUBLIC "-//W3C//DTD SVG 1.1//EN"
       "http://www.w3.org/Graphics/SVG/1.1/DTD/svg11.dtd">
<svg version="1.1" xmlns="http://www.w3.org/2000/svg" xmlns:xlink="http://www.w3.org/1999/xlink" width="3300" height="2200">
 <!--glyph: "uni100EB4.medium", point size: 100.0, font version: "17.0d8e1", template writer version: "58"-->
 <g id="Notes">
  <rect height="2200" id="artboard" style="fill:white;opacity:1" width="3300" x="0" y="0"/>
  <line style="fill:none;stroke:black;opacity:1;stroke-width:0.5;" x1="263" x2="3036" y1="292" y2="292"/>
  <text style="stroke:none;fill:black;font-family:SF Pro,SF Pro Display,SF Pro Text,sans-serif;font-size:13;font-weight:bold;" transform="matrix(1 0 0 1 263 322)">Weight/Scale Variations</text>
  <text style="stroke:none;fill:black;font-family:SF Pro,SF Pro Display,SF Pro Text,sans-serif;font-size:13;text-anchor:middle;" transform="matrix(1 0 0 1 559.711 322)">Ultralight</text>
  <text style="stroke:none;fill:black;font-family:SF Pro,SF Pro Display,SF Pro Text,sans-serif;font-size:13;text-anchor:middle;" transform="matrix(1 0 0 1 856.422 322)">Thin</text>
  <text style="stroke:none;fill:black;font-family:SF Pro,SF Pro Display,SF Pro Text,sans-serif;font-size:13;text-anchor:middle;" transform="matrix(1 0 0 1 1153.13 322)">Light</text>
  <text style="stroke:none;fill:black;font-family:SF Pro,SF Pro Display,SF Pro Text,sans-serif;font-size:13;text-anchor:middle;" transform="matrix(1 0 0 1 1449.84 322)">Regular</text>
  <text style="stroke:none;fill:black;font-family:SF Pro,SF Pro Display,SF Pro Text,sans-serif;font-size:13;text-anchor:middle;" transform="matrix(1 0 0 1 1746.56 322)">Medium</text>
  <text style="stroke:none;fill:black;font-family:SF Pro,SF Pro Display,SF Pro Text,sans-serif;font-size:13;text-anchor:middle;" transform="matrix(1 0 0 1 2043.27 322)">Semibold</text>
  <text style="stroke:none;fill:black;font-family:SF Pro,SF Pro Display,SF Pro Text,sans-serif;font-size:13;text-anchor:middle;" transform="matrix(1 0 0 1 2339.98 322)">Bold</text>
  <text style="stroke:none;fill:black;font-family:SF Pro,SF Pro Display,SF Pro Text,sans-serif;font-size:13;text-anchor:middle;" transform="matrix(1 0 0 1 2636.69 322)">Heavy</text>
  <text style="stroke:none;fill:black;font-family:SF Pro,SF Pro Display,SF Pro Text,sans-serif;font-size:13;text-anchor:middle;" transform="matrix(1 0 0 1 2933.4 322)">Black</text>
  <line style="fill:none;stroke:black;opacity:1;stroke-width:0.5;" x1="263" x2="3036" y1="1903" y2="1903"/>
  <g transform="matrix(1 0 0 1 263 1933)">
   <path d="M9.24805 0.830078Q10.8691 0.830078 12.2949 0.214844Q13.7207-0.400391 14.8096-1.49414Q15.8984-2.58789 16.5186-4.01367Q17.1387-5.43945 17.1387-7.05078Q17.1387-8.66211 16.5186-10.0879Q15.8984-11.5137 14.8047-12.6074Q13.7109-13.7012 12.2852-14.3164Q10.8594-14.9316 9.23828-14.9316Q7.62695-14.9316 6.20117-14.3164Q4.77539-13.7012 3.69141-12.6074Q2.60742-11.5137 1.9873-10.0879Q1.36719-8.66211 1.36719-7.05078Q1.36719-5.43945 1.9873-4.01367Q2.60742-2.58789 3.69629-1.49414Q4.78516-0.400391 6.21094 0.214844Q7.63672 0.830078 9.24805 0.830078ZM9.24805-0.654297Q7.91992-0.654297 6.7627-1.14746Q5.60547-1.64062 4.73145-2.51953Q3.85742-3.39844 3.36426-4.56055Q2.87109-5.72266 2.87109-7.05078Q2.87109-8.37891 3.35938-9.54102Q3.84766-10.7031 4.72168-11.582Q5.5957-12.4609 6.75293-12.9541Q7.91016-13.4473 9.23828-13.4473Q10.5762-13.4473 11.7334-12.9541Q12.8906-12.4609 13.7695-11.582Q14.6484-10.7031 15.1465-9.54102Q15.6445-8.37891 15.6445-7.05078Q15.6445-5.72266 15.1514-4.56055Q14.6582-3.39844 13.7842-2.51953Q12.9102-1.64062 11.748-1.14746Q10.5859-0.654297 9.24805-0.654297ZM5.83984-7.04102Q5.83984-6.71875 6.04492-6.51855Q6.25-6.31836 6.5918-6.31836L8.50586-6.31836L8.50586-4.39453Q8.50586-4.0625 8.70605-3.85742Q8.90625-3.65234 9.22852-3.65234Q9.56055-3.65234 9.76562-3.85742Q9.9707-4.0625 9.9707-4.39453L9.9707-6.31836L11.8945-6.31836Q12.2266-6.31836 12.4316-6.51855Q12.6367-6.71875 12.6367-7.04102Q12.6367-7.37305 12.4316-7.57812Q12.2266-7.7832 11.8945-7.7832L9.9707-7.7832L9.9707-9.69727Q9.9707-10.0391 9.76562-10.2441Q9.56055-10.4492 9.22852-10.4492Q8.90625-10.4492 8.70605-10.2441Q8.50586-10.0391 8.50586-9.69727L8.50586-7.7832L6.5918-7.7832Q6.25-7.7832 6.04492-7.57812Q5.83984-7.37305 5.83984-7.04102Z"/>
  </g>
  <g transform="matrix(1 0 0 1 281.867 1933)">
   <path d="M11.709 2.91016Q13.75 2.91016 15.5518 2.12891Q17.3535 1.34766 18.7305-0.0292969Q20.1074-1.40625 20.8887-3.20801Q21.6699-5.00977 21.6699-7.05078Q21.6699-9.0918 20.8887-10.8936Q20.1074-12.6953 18.7305-14.0723Q17.3535-15.4492 15.5469-16.2305Q13.7402-17.0117 11.6992-17.0117Q9.6582-17.0117 7.85645-16.2305Q6.05469-15.4492 4.68262-14.0723Q3.31055-12.6953 2.5293-10.8936Q1.74805-9.0918 1.74805-7.05078Q1.74805-5.00977 2.5293-3.20801Q3.31055-1.40625 4.6875-0.0292969Q6.06445 1.34766 7.86621 2.12891Q9.66797 2.91016 11.709 2.91016ZM11.709 1.25Q9.98047 1.25 8.47656 0.605469Q6.97266-0.0390625 5.83496-1.17676Q4.69727-2.31445 4.05762-3.81836Q3.41797-5.32227 3.41797-7.05078Q3.41797-8.7793 4.05762-10.2832Q4.69727-11.7871 5.83008-12.9297Q6.96289-14.0723 8.4668-14.7119Q9.9707-15.3516 11.6992-15.3516Q13.4277-15.3516 14.9316-14.7119Q16.4355-14.0723 17.5781-12.9297Q18.7207-11.7871 19.3652-10.2832Q20.0098-8.7793 20.0098-7.05078Q20.0098-5.32227 19.3701-3.81836Q18.7305-2.31445 17.5928-1.17676Q16.4551-0.0390625 14.9463 0.605469Q13.4375 1.25 11.709 1.25ZM7.39258-7.04102Q7.39258-6.68945 7.62695-6.46484Q7.86133-6.24023 8.23242-6.24023L10.8789-6.24023L10.8789-3.57422Q10.8789-3.21289 11.1035-2.9834Q11.3281-2.75391 11.6797-2.75391Q12.0508-2.75391 12.2852-2.9834Q12.5195-3.21289 12.5195-3.57422L12.5195-6.24023L15.1758-6.24023Q15.5371-6.24023 15.7715-6.46484Q16.0059-6.68945 16.0059-7.04102Q16.0059-7.41211 15.7715-7.6416Q15.5371-7.87109 15.1758-7.87109L12.5195-7.87109L12.5195-10.5176Q12.5195-10.8984 12.2852-11.1279Q12.0508-11.3574 11.6797-11.3574Q11.3281-11.3574 11.1035-11.1279Q10.8789-10.8984 10.8789-10.5176L10.8789-7.87109L8.23242-7.87109Q7.85156-7.87109 7.62207-7.6416Q7.39258-7.41211 7.39258-7.04102Z"/>
  </g>
  <g transform="matrix(1 0 0 1 305.646 1933)">
   <path d="M14.9707 5.66406Q17.0605 5.66406 18.96 5.01465Q20.8594 4.36523 22.4512 3.19336Q24.043 2.02148 25.2197 0.429688Q26.3965-1.16211 27.0459-3.06641Q27.6953-4.9707 27.6953-7.05078Q27.6953-9.14062 27.0459-11.04Q26.3965-12.9395 25.2197-14.5312Q24.043-16.123 22.4512-17.2998Q20.8594-18.4766 18.9551-19.126Q17.0508-19.7754 14.9609-19.7754Q12.8711-19.7754 10.9717-19.126Q9.07227-18.4766 7.48535-17.2998Q5.89844-16.123 4.72168-14.5312Q3.54492-12.9395 2.90039-11.04Q2.25586-9.14062 2.25586-7.05078Q2.25586-4.9707 2.90527-3.06641Q3.55469-1.16211 4.72656 0.429688Q5.89844 2.02148 7.49023 3.19336Q9.08203 4.36523 10.9814 5.01465Q12.8809 5.66406 14.9707 5.66406ZM14.9707 3.84766Q13.1641 3.84766 11.5283 3.2959Q9.89258 2.74414 8.53516 1.74805Q7.17773 0.751953 6.17676-0.610352Q5.17578-1.97266 4.62891-3.6084Q4.08203-5.24414 4.08203-7.05078Q4.08203-8.86719 4.62891-10.5029Q5.17578-12.1387 6.17188-13.501Q7.16797-14.8633 8.52539-15.8594Q9.88281-16.8555 11.5186-17.4023Q13.1543-17.9492 14.9609-17.9492Q16.7773-17.9492 18.4131-17.4023Q20.0488-16.8555 21.4111-15.8594Q22.7734-14.8633 23.7695-13.501Q24.7656-12.1387 25.3174-10.5029Q25.8691-8.86719 25.8691-7.05078Q25.8789-5.24414 25.332-3.6084Q24.7852-1.97266 23.7842-0.610352Q22.7832 0.751953 21.4209 1.74805Q20.0586 2.74414 18.4229 3.2959Q16.7871 3.84766 14.9707 3.84766ZM9.45312-7.04102Q9.45312-6.66016 9.71191-6.41113Q9.9707-6.16211 10.3711-6.16211L14.0625-6.16211L14.0625-2.46094Q14.0625-2.06055 14.3115-1.80664Q14.5605-1.55273 14.9414-1.55273Q15.3516-1.55273 15.6055-1.80664Q15.8594-2.06055 15.8594-2.46094L15.8594-6.16211L19.5605-6.16211Q19.9609-6.16211 20.2148-6.41113Q20.4688-6.66016 20.4688-7.04102Q20.4688-7.45117 20.2148-7.70508Q19.9609-7.95898 19.5605-7.95898L15.8594-7.95898L15.8594-11.6504Q15.8594-12.0605 15.6055-12.3145Q15.3516-12.5684 14.9414-12.5684Q14.5605-12.5684 14.3115-12.3096Q14.0625-12.0508 14.0625-11.6504L14.0625-7.95898L10.3711-7.95898Q9.96094-7.95898 9.70703-7.70508Q9.45312-7.45117 9.45312-7.04102Z"/>
  </g>
  <text style="stroke:none;fill:black;font-family:SF Pro,SF Pro Display,SF Pro Text,sans-serif;font-size:13;font-weight:bold;" transform="matrix(1 0 0 1 263 1953)">Design Variations</text>
  <text style="stroke:none;fill:black;font-family:SF Pro,SF Pro Display,SF Pro Text,sans-serif;font-size:13;" transform="matrix(1 0 0 1 263 1971)">Symbols are supported in up to nine weights and three scales.</text>
  <text style="stroke:none;fill:black;font-family:SF Pro,SF Pro Display,SF Pro Text,sans-serif;font-size:13;" transform="matrix(1 0 0 1 263 1989)">For optimal layout with text and other symbols, vertically align</text>
  <text style="stroke:none;fill:black;font-family:SF Pro,SF Pro Display,SF Pro Text,sans-serif;font-size:13;" transform="matrix(1 0 0 1 263 2007)">symbols with the adjacent text.</text>
  <line style="fill:none;stroke:#00AEEF;stroke-width:0.5;opacity:1.0;" x1="776" x2="776" y1="1919" y2="1933"/>
  <g transform="matrix(1 0 0 1 776 1933)">
   <path d="M3.31055 0.15625Q3.70117 0.15625 3.91602-0.00976562Q4.13086-0.175781 4.26758-0.585938L5.52734-4.0332L11.2891-4.0332L12.5488-0.585938Q12.6855-0.175781 12.9004-0.00976562Q13.1152 0.15625 13.4961 0.15625Q13.8867 0.15625 14.1162-0.0585938Q14.3457-0.273438 14.3457-0.644531Q14.3457-0.869141 14.2383-1.17188L9.6582-13.3691Q9.48242-13.8184 9.17969-14.043Q8.87695-14.2676 8.4082-14.2676Q7.5-14.2676 7.17773-13.3789L2.59766-1.16211Q2.49023-0.859375 2.49023-0.634766Q2.49023-0.263672 2.70996-0.0537109Q2.92969 0.15625 3.31055 0.15625ZM6.00586-5.51758L8.37891-12.0898L8.42773-12.0898L10.8008-5.51758Z"/>
  </g>
  <line style="fill:none;stroke:#00AEEF;stroke-width:0.5;opacity:1.0;" x1="793.197" x2="793.197" y1="1919" y2="1933"/>
  <text style="stroke:none;fill:black;font-family:SF Pro,SF Pro Display,SF Pro Text,sans-serif;font-size:13;font-weight:bold;" transform="matrix(1 0 0 1 776 1953)">Margins</text>
  <text style="stroke:none;fill:black;font-family:SF Pro,SF Pro Display,SF Pro Text,sans-serif;font-size:13;" transform="matrix(1 0 0 1 776 1971)">Leading and trailing margins on the left and right side of each symbol</text>
  <text style="stroke:none;fill:black;font-family:SF Pro,SF Pro Display,SF Pro Text,sans-serif;font-size:13;" transform="matrix(1 0 0 1 776 1989)">can be adjusted by modifying the x-location of the margin guidelines.</text>
  <text style="stroke:none;fill:black;font-family:SF Pro,SF Pro Display,SF Pro Text,sans-serif;font-size:13;" transform="matrix(1 0 0 1 776 2007)">Modifications are automatically applied proportionally to all</text>
  <text style="stroke:none;fill:black;font-family:SF Pro,SF Pro Display,SF Pro Text,sans-serif;font-size:13;" transform="matrix(1 0 0 1 776 2025)">scales and weights.</text>
  <g transform="matrix(1 0 0 1 1289 1933)">
   <path d="M2.8418 1.86523L4.54102 3.57422Q5.18555 4.22852 5.90332 4.17969Q6.62109 4.13086 7.31445 3.35938L18.0078-8.42773L17.041-9.4043L6.42578 2.27539Q6.16211 2.57812 5.89355 2.61719Q5.625 2.65625 5.27344 2.30469L4.10156 1.14258Q3.75 0.791016 3.79395 0.522461Q3.83789 0.253906 4.14062-0.0195312L15.6152-10.8203L14.6387-11.7871L3.04688-0.898438Q2.30469-0.214844 2.25098 0.498047Q2.19727 1.21094 2.8418 1.86523ZM9.25781-16.3281Q8.94531-16.0254 8.90625-15.6348Q8.86719-15.2441 9.04297-14.9512Q9.21875-14.6777 9.55566-14.541Q9.89258-14.4043 10.3809-14.5215Q11.4746-14.7754 12.5977-14.7314Q13.7207-14.6875 14.7949-13.9844L14.209-12.5293Q13.9551-11.9043 14.0674-11.4404Q14.1797-10.9766 14.5801-10.5664L16.875-8.25195Q17.2363-7.88086 17.5781-7.82227Q17.9199-7.76367 18.3398-7.8418L19.4043-8.03711L20.0684-7.36328L20.0293-6.80664Q20-6.43555 20.1221-6.12305Q20.2441-5.81055 20.6055-5.44922L21.3672-4.70703Q21.7285-4.3457 22.1533-4.33105Q22.5781-4.31641 22.9297-4.66797L25.8398-7.58789Q26.1914-7.93945 26.1816-8.35449Q26.1719-8.76953 25.8105-9.13086L25.0391-9.89258Q24.6875-10.2539 24.3799-10.3857Q24.0723-10.5176 23.7109-10.4883L23.1348-10.4395L22.4902-11.0742L22.7344-12.1973Q22.832-12.6172 22.6953-12.9834Q22.5586-13.3496 22.1191-13.7891L19.9219-15.9766Q18.6719-17.2168 17.2607-17.8369Q15.8496-18.457 14.4189-18.4814Q12.9883-18.5059 11.665-17.959Q10.3418-17.4121 9.25781-16.3281ZM10.752-15.957Q11.6602-16.6211 12.7002-16.9043Q13.7402-17.1875 14.8047-17.085Q15.8691-16.9824 16.8701-16.5137Q17.8711-16.0449 18.7012-15.2051L21.1328-12.793Q21.3086-12.6172 21.3525-12.4512Q21.3965-12.2852 21.3379-12.0312L21.0156-10.5469L22.5195-9.0625L23.5059-9.12109Q23.6914-9.13086 23.7891-9.09668Q23.8867-9.0625 24.0332-8.91602L24.6094-8.33984L22.168-5.89844L21.5918-6.47461Q21.4453-6.62109 21.4062-6.71875Q21.3672-6.81641 21.377-7.01172L21.4453-7.98828L19.9512-9.47266L18.4277-9.21875Q18.1836-9.16992 18.042-9.2041Q17.9004-9.23828 17.7148-9.41406L15.7129-11.416Q15.5176-11.5918 15.4932-11.7529Q15.4688-11.9141 15.5859-12.1875L16.4648-14.2773Q15.293-15.3711 13.8281-15.791Q12.3633-16.2109 10.8398-15.7617Q10.7227-15.7324 10.6885-15.8057Q10.6543-15.8789 10.752-15.957Z"/>
  </g>
  <text style="stroke:none;fill:black;font-family:SF Pro,SF Pro Display,SF Pro Text,sans-serif;font-size:13;font-weight:bold;" transform="matrix(1 0 0 1 1289 1953)">Exporting</text>
  <text style="stroke:none;fill:black;font-family:SF Pro,SF Pro Display,SF Pro Text,sans-serif;font-size:13;" transform="matrix(1 0 0 1 1289 1971)">Symbols should be outlined when exporting to ensure the</text>
  <text style="stroke:none;fill:black;font-family:SF Pro,SF Pro Display,SF Pro Text,sans-serif;font-size:13;" transform="matrix(1 0 0 1 1289 1989)">design is preserved when submitting to Xcode.</text>
  <text id="template-version" style="stroke:none;fill:black;font-family:SF Pro,SF Pro Display,SF Pro Text,sans-serif;font-size:13;text-anchor:end;" transform="matrix(1 0 0 1 3036 1933)">Template v.2.0</text>
  <text style="stroke:none;fill:black;font-family:SF Pro,SF Pro Display,SF Pro Text,sans-serif;font-size:13;text-anchor:end;" transform="matrix(1 0 0 1 3036 1951)">Requires Xcode 13 or greater</text>
  <text id="descriptive-name" style="stroke:none;fill:black;font-family:SF Pro,SF Pro Display,SF Pro Text,sans-serif;font-size:13;text-anchor:end;" transform="matrix(1 0 0 1 3036 1969)">Generated from dice</text>
  <text style="stroke:none;fill:black;font-family:SF Pro,SF Pro Display,SF Pro Text,sans-serif;font-size:13;text-anchor:end;" transform="matrix(1 0 0 1 3036 1987)">Typeset at 100 points</text>
  <text style="stroke:none;fill:black;font-family:SF Pro,SF Pro Display,SF Pro Text,sans-serif;font-size:13;" transform="matrix(1 0 0 1 263 726)">Small</text>
  <text style="stroke:none;fill:black;font-family:SF Pro,SF Pro Display,SF Pro Text,sans-serif;font-size:13;" transform="matrix(1 0 0 1 263 1156)">Medium</text>
  <text style="stroke:none;fill:black;font-family:SF Pro,SF Pro Display,SF Pro Text,sans-serif;font-size:13;" transform="matrix(1 0 0 1 263 1586)">Large</text>
 </g>
 <g id="Guides">
  <g id="H-reference" style="fill:#27AAE1;stroke:none;" transform="matrix(1 0 0 1 339 696)">
   <path d="M0.976562 0L3.66211 0L29.3457-67.1387L30.0293-67.1387L30.0293-70.459L28.125-70.459ZM11.6699-24.4629L46.9727-24.4629L46.2402-26.709L12.4512-26.709ZM55.127 0L57.7637 0L30.6152-70.459L29.4434-70.459L29.4434-67.1387Z"/>
  </g>
  <line id="Baseline-S" style="fill:none;stroke:#27AAE1;opacity:1;stroke-width:0.5;" x1="263" x2="3036" y1="696" y2="696"/>
  <line id="Capline-S" style="fill:none;stroke:#27AAE1;opacity:1;stroke-width:0.5;" x1="263" x2="3036" y1="625.541" y2="625.541"/>
  <g id="H-reference" style="fill:#27AAE1;stroke:none;" transform="matrix(1 0 0 1 339 1126)">
   <path d="M0.976562 0L3.66211 0L29.3457-67.1387L30.0293-67.1387L30.0293-70.459L28.125-70.459ZM11.6699-24.4629L46.9727-24.4629L46.2402-26.709L12.4512-26.709ZM55.127 0L57.7637 0L30.6152-70.459L29.4434-70.459L29.4434-67.1387Z"/>
  </g>
  <line id="Baseline-M" style="fill:none;stroke:#27AAE1;opacity:1;stroke-width:0.5;" x1="263" x2="3036" y1="1126" y2="1126"/>
  <line id="Capline-M" style="fill:none;stroke:#27AAE1;opacity:1;stroke-width:0.5;" x1="263" x2="3036" y1="1055.54" y2="1055.54"/>
  <g id="H-reference" style="fill:#27AAE1;stroke:none;" transform="matrix(1 0 0 1 339 1556)">
   <path d="M0.976562 0L3.66211 0L29.3457-67.1387L30.0293-67.1387L30.0293-70.459L28.125-70.459ZM11.6699-24.4629L46.9727-24.4629L46.2402-26.709L12.4512-26.709ZM55.127 0L57.7637 0L30.6152-70.459L29.4434-70.459L29.4434-67.1387Z"/>
  </g>
  <line id="Baseline-L" style="fill:none;stroke:#27AAE1;opacity:1;stroke-width:0.5;" x1="263" x2="3036" y1="1556" y2="1556"/>
  <line id="Capline-L" style="fill:none;stroke:#27AAE1;opacity:1;stroke-width:0.5;" x1="263" x2="3036" y1="1485.54" y2="1485.54"/>
  <line id="left-margin" style="fill:none;stroke:#00AEEF;stroke-width:0.5;opacity:1.0;" x1="1385.73" x2="1385.73" y1="1030.79" y2="1150.12"/>
  <line id="right-margin" style="fill:none;stroke:#00AEEF;stroke-width:0.5;opacity:1.0;" x1="1513.96" x2="1513.96" y1="1030.79" y2="1150.12"/>
 </g>
 <g id="Symbols">
  <g id="Black-L" transform="matrix(1 0 0 1 2843.58 1556)">
   <path d="M39.9902 5.07812L59.7656 5.07812L59.7656-15.1367L42.6758-15.1367Q39.5508-15.1367 37.9395-16.6504Q36.3281-18.1641 36.3281-21.582L36.3281-81.6895Q36.3281-85.1074 37.9395-86.6211Q39.5508-88.1348 42.6758-88.1348L102.881-88.1348Q106.055-88.1348 107.666-86.6211Q109.277-85.1074 109.277-81.6895L109.277-68.1152L129.541-68.1152L129.541-84.5703Q129.541-95.9473 123.291-102.148Q117.041-108.35 105.615-108.35L39.9902-108.35Q28.5156-108.35 22.29-102.148Q16.0645-95.9473 16.0645-84.5703L16.0645-18.7012Q16.0645-7.32422 22.29-1.12305Q28.5156 5.07812 39.9902 5.07812ZM74.0234 37.9883L139.697 37.9883Q151.123 37.9883 157.349 31.7871Q163.574 25.5859 163.574 14.1602L163.574-51.6602Q163.574-63.0371 157.349-69.2627Q151.123-75.4883 139.697-75.4883L74.0234-75.4883Q62.5977-75.4883 56.3721-69.2627Q50.1465-63.0371 50.1465-51.6602L50.1465 14.1602Q50.1465 25.5859 56.3721 31.7871Q62.5977 37.9883 74.0234 37.9883ZM76.7578 17.7734Q73.584 17.7734 71.9727 16.2598Q70.3613 14.7461 70.3613 11.3281L70.3613-48.7793Q70.3613-52.1973 71.9727-53.7109Q73.584-55.2246 76.7578-55.2246L136.963-55.2246Q140.137-55.2246 141.748-53.7109Q143.359-52.1973 143.359-48.7793L143.359 11.3281Q143.359 14.7461 141.748 16.2598Q140.137 17.7734 136.963 17.7734ZM85.6934-31.1035Q89.2578-31.0547 91.8457-33.6426Q94.4336-36.2305 94.4336-39.8438Q94.4336-43.457 91.8457-46.0205Q89.2578-48.584 85.6934-48.584Q82.0312-48.584 79.4678-46.0449Q76.9043-43.5059 76.9043-39.8438Q76.9043-36.2305 79.4678-33.6914Q82.0312-31.1523 85.6934-31.1035ZM128.125-31.1035Q131.689-31.0547 134.277-33.6426Q136.865-36.2305 136.865-39.8438Q136.865-43.5059 134.302-46.0449Q131.738-48.584 128.125-48.584Q124.512-48.584 121.948-46.0449Q119.385-43.5059 119.385-39.8438Q119.385-36.2305 121.948-33.6914Q124.512-31.1523 128.125-31.1035ZM106.934-9.81445Q110.498-9.81445 113.062-12.4512Q115.625-15.0879 115.625-18.7012Q115.625-22.2656 113.062-24.7803Q110.498-27.2949 106.934-27.2949Q103.271-27.2949 100.732-24.7803Q98.1934-22.2656 98.1934-18.7012Q98.1934-15.0391 100.732-12.4268Q103.271-9.81445 106.934-9.81445ZM85.6445 11.4258Q89.209 11.4258 91.7969 8.83789Q94.3848 6.25 94.3848 2.63672Q94.3848-0.976562 91.7725-3.54004Q89.1602-6.10352 85.6445-6.10352Q82.0312-6.10352 79.4678-3.54004Q76.9043-0.976562 76.9043 2.63672Q76.9043 6.25 79.4678 8.83789Q82.0312 11.4258 85.6445 11.4258ZM128.125 11.4258Q131.738 11.4258 134.302 8.83789Q136.865 6.25 136.865 2.63672Q136.865-0.976562 134.277-3.54004Q131.689-6.10352 128.125-6.10352Q124.512-6.10352 121.948-3.54004Q119.385-0.976562 119.385 2.63672Q119.385 6.25 121.948 8.83789Q124.512 11.4258 128.125 11.4258Z"/>
  </g>
  <g id="Heavy-L" transform="matrix(1 0 0 1 2548.73 1556)">
   <path d="M38.8184 4.24805L57.666 4.24805L57.666-13.2812L40.918-13.2812Q37.3047-13.2812 35.4492-15.0635Q33.5938-16.8457 33.5938-20.7031L33.5938-81.4453Q33.5938-85.3027 35.4492-87.085Q37.3047-88.8672 40.918-88.8672L101.758-88.8672Q105.371-88.8672 107.251-87.085Q109.131-85.3027 109.131-81.4453L109.131-68.0176L126.66-68.0176L126.66-83.7402Q126.66-94.6289 120.752-100.488Q114.844-106.348 103.906-106.348L38.8184-106.348Q27.832-106.348 21.9482-100.488Q16.0645-94.6289 16.0645-83.7402L16.0645-18.4082Q16.0645-7.4707 21.9482-1.61133Q27.832 4.24805 38.8184 4.24805ZM72.0215 35.9863L137.158 35.9863Q148.096 35.9863 153.979 30.127Q159.863 24.2676 159.863 13.3301L159.863-51.9531Q159.863-62.8418 153.979-68.7256Q148.096-74.6094 137.158-74.6094L72.0215-74.6094Q61.084-74.6094 55.2002-68.7256Q49.3164-62.8418 49.3164-51.9531L49.3164 13.3301Q49.3164 24.2676 55.2002 30.127Q61.084 35.9863 72.0215 35.9863ZM74.1699 18.5059Q70.5566 18.5059 68.6768 16.7236Q66.7969 14.9414 66.7969 11.084L66.7969-49.6582Q66.7969-53.5156 68.6768-55.2979Q70.5566-57.0801 74.1699-57.0801L135.01-57.0801Q138.623-57.0801 140.503-55.2979Q142.383-53.5156 142.383-49.6582L142.383 11.084Q142.383 14.9414 140.503 16.7236Q138.623 18.5059 135.01 18.5059ZM82.5195-32.6172Q86.084-32.5684 88.6475-35.1562Q91.2109-37.7441 91.2109-41.3574Q91.2109-44.9707 88.6475-47.5586Q86.084-50.1465 82.5195-50.1465Q78.8574-50.1465 76.2939-47.583Q73.7305-45.0195 73.7305-41.3574Q73.7305-37.7441 76.2939-35.2051Q78.8574-32.666 82.5195-32.6172ZM126.807-32.6172Q130.371-32.5684 132.935-35.1562Q135.498-37.7441 135.498-41.3574Q135.498-45.0195 132.935-47.583Q130.371-50.1465 126.807-50.1465Q123.193-50.1465 120.605-47.583Q118.018-45.0195 118.018-41.3574Q118.018-37.7441 120.605-35.2051Q123.193-32.666 126.807-32.6172ZM104.688-10.4004Q108.203-10.4004 110.791-13.0371Q113.379-15.6738 113.379-19.2871Q113.379-22.8516 110.791-25.3662Q108.203-27.8809 104.688-27.8809Q101.025-27.8809 98.4863-25.3662Q95.9473-22.8516 95.9473-19.2871Q95.9473-15.625 98.4619-13.0127Q100.977-10.4004 104.688-10.4004ZM82.4707 11.7188Q86.0352 11.7188 88.5986 9.15527Q91.1621 6.5918 91.1621 2.97852Q91.1621-0.634766 88.5986-3.22266Q86.0352-5.81055 82.4707-5.81055Q78.8574-5.81055 76.2939-3.22266Q73.7305-0.634766 73.7305 2.97852Q73.7305 6.5918 76.2939 9.15527Q78.8574 11.7188 82.4707 11.7188ZM126.807 11.7188Q130.371 11.7188 132.935 9.15527Q135.498 6.5918 135.498 2.97852Q135.498-0.634766 132.935-3.22266Q130.371-5.81055 126.807-5.81055Q123.193-5.81055 120.63-3.22266Q118.066-0.634766 118.066 2.97852Q118.066 6.5918 120.63 9.15527Q123.193 11.7188 126.807 11.7188Z"/>
  </g>
  <g id="Bold-L" transform="matrix(1 0 0 1 2254.06 1556)">
   <path d="M37.5488 3.27148L55.3223 3.27148L55.3223-11.1816L38.9648-11.1816Q34.8633-11.1816 32.6904-13.2812Q30.5176-15.3809 30.5176-19.7266L30.5176-81.1523Q30.5176-85.498 32.6904-87.5977Q34.8633-89.6973 38.9648-89.6973L100.537-89.6973Q104.639-89.6973 106.812-87.5977Q108.984-85.498 108.984-81.1523L108.984-67.9688L123.486-67.9688L123.486-82.8125Q123.486-93.1641 117.969-98.6328Q112.451-104.102 102.002-104.102L37.5488-104.102Q27.0508-104.102 21.5576-98.6328Q16.0645-93.1641 16.0645-82.8125L16.0645-18.0664Q16.0645-7.66602 21.5576-2.19727Q27.0508 3.27148 37.5488 3.27148ZM69.8242 33.7891L134.326 33.7891Q144.727 33.7891 150.244 28.2959Q155.762 22.8027 155.762 12.4512L155.762-52.2949Q155.762-62.6465 150.244-68.1396Q144.727-73.6328 134.326-73.6328L69.8242-73.6328Q59.375-73.6328 53.8818-68.1641Q48.3887-62.6953 48.3887-52.2949L48.3887 12.4512Q48.3887 22.8516 53.8818 28.3203Q59.375 33.7891 69.8242 33.7891ZM71.2891 19.3359Q67.1387 19.3359 64.9902 17.2363Q62.8418 15.1367 62.8418 10.791L62.8418-50.6348Q62.8418-54.9805 64.9902-57.0801Q67.1387-59.1797 71.2891-59.1797L132.861-59.1797Q136.963-59.1797 139.136-57.0801Q141.309-54.9805 141.309-50.6348L141.309 10.791Q141.309 15.1367 139.136 17.2363Q136.963 19.3359 132.861 19.3359ZM78.9551-34.2773Q82.5195-34.2285 85.083-36.8164Q87.6465-39.4043 87.6465-43.0176Q87.6465-46.6309 85.083-49.1943Q82.5195-51.7578 78.9551-51.7578Q75.293-51.7578 72.7051-49.2188Q70.1172-46.6797 70.1172-43.0176Q70.1172-39.4043 72.7051-36.8652Q75.293-34.3262 78.9551-34.2773ZM125.293-34.2773Q128.857-34.2285 131.421-36.8164Q133.984-39.4043 133.984-43.0176Q133.984-46.6797 131.421-49.2188Q128.857-51.7578 125.293-51.7578Q121.68-51.7578 119.067-49.2188Q116.455-46.6797 116.455-43.0176Q116.455-39.4043 119.067-36.8652Q121.68-34.3262 125.293-34.2773ZM102.1-10.9863Q105.664-10.9863 108.252-13.623Q110.84-16.2598 110.84-19.873Q110.84-23.4375 108.228-25.9766Q105.615-28.5156 102.1-28.5156Q98.4375-28.5156 95.8984-25.9766Q93.3594-23.4375 93.3594-19.873Q93.3594-16.2109 95.8984-13.5986Q98.4375-10.9863 102.1-10.9863ZM78.9062 12.207Q82.4707 12.207 85.0342 9.61914Q87.5977 7.03125 87.5977 3.41797Q87.5977-0.195312 85.0342-2.7832Q82.4707-5.37109 78.9062-5.37109Q75.293-5.37109 72.7295-2.7832Q70.166-0.195312 70.166 3.41797Q70.166 7.03125 72.7295 9.61914Q75.293 12.207 78.9062 12.207ZM125.293 12.207Q128.857 12.207 131.421 9.61914Q133.984 7.03125 133.984 3.41797Q133.984-0.195312 131.421-2.7832Q128.857-5.37109 125.293-5.37109Q121.68-5.37109 119.116-2.7832Q116.553-0.195312 116.553 3.41797Q116.553 7.03125 119.116 9.61914Q121.68 12.207 125.293 12.207Z"/>
  </g>
  <g id="Semibold-L" transform="matrix(1 0 0 1 1958.79 1556)">
   <path d="M36.6211 2.63672L53.7109 2.63672L53.7109-9.7168L37.5977-9.7168Q33.1055-9.7168 30.7617-12.0361Q28.418-14.3555 28.418-18.9941L28.418-80.9082Q28.418-85.5957 30.7617-87.915Q33.1055-90.2344 37.5977-90.2344L99.707-90.2344Q104.102-90.2344 106.494-87.915Q108.887-85.5957 108.887-80.9082L108.887-67.8711L121.24-67.8711L121.24-82.1777Q121.24-92.1387 115.991-97.3389Q110.742-102.539 100.635-102.539L36.6211-102.539Q26.5137-102.539 21.2891-97.3389Q16.0645-92.1387 16.0645-82.1777L16.0645-17.8223Q16.0645-7.8125 21.2891-2.58789Q26.5137 2.63672 36.6211 2.63672ZM68.3105 32.2266L132.324 32.2266Q142.383 32.2266 147.632 27.002Q152.881 21.7773 152.881 11.8164L152.881-52.5391Q152.881-62.5 147.632-67.7246Q142.383-72.9492 132.324-72.9492L68.3105-72.9492Q58.2031-72.9492 52.9785-67.749Q47.7539-62.5488 47.7539-52.5391L47.7539 11.8164Q47.7539 21.8262 52.9785 27.0264Q58.2031 32.2266 68.3105 32.2266ZM69.2871 19.9219Q64.7949 19.9219 62.4268 17.6025Q60.0586 15.2832 60.0586 10.5957L60.0586-51.3184Q60.0586-56.0059 62.4268-58.3008Q64.7949-60.5957 69.2871-60.5957L131.348-60.5957Q135.791-60.5957 138.184-58.3008Q140.576-56.0059 140.576-51.3184L140.576 10.5957Q140.576 15.2832 138.184 17.6025Q135.791 19.9219 131.348 19.9219ZM76.5137-35.4004Q80.0781-35.3516 82.6416-37.9395Q85.2051-40.5273 85.2051-44.1895Q85.2051-47.8027 82.6416-50.3418Q80.0781-52.8809 76.5137-52.8809Q72.9004-52.8809 70.3125-50.3418Q67.7246-47.8027 67.7246-44.1895Q67.7246-40.5273 70.3125-37.9639Q72.9004-35.4004 76.5137-35.4004ZM124.268-35.4004Q127.832-35.3516 130.396-37.9395Q132.959-40.5273 132.959-44.1895Q132.959-47.8027 130.396-50.3418Q127.832-52.8809 124.268-52.8809Q120.654-52.8809 118.066-50.3418Q115.479-47.8027 115.479-44.1895Q115.479-40.5273 118.066-37.9639Q120.654-35.4004 124.268-35.4004ZM100.391-11.4258Q103.955-11.4258 106.519-14.0381Q109.082-16.6504 109.082-20.3125Q109.082-23.877 106.494-26.416Q103.906-28.9551 100.391-28.9551Q96.7285-28.9551 94.1895-26.416Q91.6504-23.877 91.6504-20.3125Q91.6504-16.6504 94.1895-14.0381Q96.7285-11.4258 100.391-11.4258ZM76.5137 12.4512Q80.0781 12.4512 82.6416 9.86328Q85.2051 7.27539 85.2051 3.66211Q85.2051 0.0488281 82.6416-2.51465Q80.0781-5.07812 76.5137-5.07812Q72.9004-5.07812 70.3369-2.51465Q67.7734 0.0488281 67.7734 3.66211Q67.7734 7.27539 70.3369 9.86328Q72.9004 12.4512 76.5137 12.4512ZM124.268 12.4512Q127.832 12.4512 130.396 9.86328Q132.959 7.27539 132.959 3.66211Q132.959 0.0488281 130.396-2.51465Q127.832-5.07812 124.268-5.07812Q120.654-5.07812 118.115-2.51465Q115.576 0.0488281 115.576 3.66211Q115.576 7.27539 118.115 9.86328Q120.654 12.4512 124.268 12.4512Z"/>
  </g>
  <g id="Medium-L" transform="matrix(1 0 0 1 1663.16 1556)">
   <path d="M35.9375 2.09961L52.4902 2.09961L52.4902-8.59375L36.5723-8.59375Q31.8359-8.59375 29.3213-11.084Q26.8066-13.5742 26.8066-18.5059L26.8066-80.7617Q26.8066-85.6934 29.3213-88.1836Q31.8359-90.6738 36.5723-90.6738L99.0234-90.6738Q103.711-90.6738 106.25-88.1836Q108.789-85.6934 108.789-80.7617L108.789-67.8223L119.58-67.8223L119.58-81.6895Q119.58-91.3574 114.526-96.3623Q109.473-101.367 99.6582-101.367L35.9375-101.367Q26.123-101.367 21.0938-96.3867Q16.0645-91.4062 16.0645-81.6895L16.0645-17.627Q16.0645-7.86133 21.0938-2.88086Q26.123 2.09961 35.9375 2.09961ZM67.1387 31.0547L130.859 31.0547Q140.625 31.0547 145.679 26.0498Q150.732 21.0449 150.732 11.3281L150.732-52.6855Q150.732-62.4023 145.679-67.4316Q140.625-72.4609 130.859-72.4609L67.1387-72.4609Q57.3242-72.4609 52.2949-67.4561Q47.2656-62.4512 47.2656-52.6855L47.2656 11.3281Q47.2656 21.0449 52.2949 26.0498Q57.3242 31.0547 67.1387 31.0547ZM67.7734 20.3125Q63.0371 20.3125 60.5225 17.8467Q58.0078 15.3809 58.0078 10.4492L58.0078-51.8066Q58.0078-56.7383 60.5225-59.2285Q63.0371-61.7188 67.7734-61.7188L130.225-61.7188Q134.912-61.7188 137.451-59.2285Q139.99-56.7383 139.99-51.8066L139.99 10.4492Q139.99 15.3809 137.451 17.8467Q134.912 20.3125 130.225 20.3125ZM74.6094-36.2793Q78.2227-36.2305 80.7861-38.8184Q83.3496-41.4062 83.3496-45.0684Q83.3496-48.6816 80.7861-51.2451Q78.2227-53.8086 74.6094-53.8086Q70.9961-53.8086 68.4082-51.2451Q65.8203-48.6816 65.8203-45.0684Q65.8203-41.4062 68.4082-38.8672Q70.9961-36.3281 74.6094-36.2793ZM123.438-36.2793Q127.002-36.2305 129.565-38.8184Q132.129-41.4062 132.129-45.0684Q132.129-48.6816 129.59-51.2451Q127.051-53.8086 123.438-53.8086Q119.824-53.8086 117.261-51.2451Q114.697-48.6816 114.697-45.0684Q114.697-41.4062 117.261-38.8672Q119.824-36.3281 123.438-36.2793ZM99.0234-11.7676Q102.539-11.7676 105.151-14.3799Q107.764-16.9922 107.764-20.6543Q107.764-24.2188 105.151-26.7578Q102.539-29.2969 99.0234-29.2969Q95.3613-29.2969 92.8223-26.7578Q90.2832-24.2188 90.2832-20.6543Q90.2832-16.9922 92.8223-14.3799Q95.3613-11.7676 99.0234-11.7676ZM74.6094 12.6465Q78.1738 12.6465 80.7373 10.0586Q83.3008 7.4707 83.3008 3.85742Q83.3008 0.292969 80.7373-2.29492Q78.1738-4.88281 74.6094-4.88281Q70.9961-4.88281 68.4326-2.31934Q65.8691 0.244141 65.8691 3.85742Q65.8691 7.51953 68.4326 10.083Q70.9961 12.6465 74.6094 12.6465ZM123.438 12.6465Q127.051 12.6465 129.59 10.0586Q132.129 7.4707 132.129 3.85742Q132.129 0.244141 129.565-2.31934Q127.002-4.88281 123.438-4.88281Q119.824-4.88281 117.261-2.31934Q114.697 0.244141 114.697 3.85742Q114.697 7.4707 117.261 10.0586Q119.824 12.6465 123.438 12.6465Z"/>
  </g>
  <g id="Regular-L" transform="matrix(1 0 0 1 1367.86 1556)">
   <path d="M35.0586 1.46484L50.8789 1.46484L50.8789-7.17773L35.2539-7.17773Q30.127-7.17773 27.417-9.86328Q24.707-12.5488 24.707-17.8223L24.707-80.5664Q24.707-85.8398 27.417-88.5254Q30.127-91.2109 35.2539-91.2109L98.1934-91.2109Q103.223-91.2109 105.957-88.5254Q108.691-85.8398 108.691-80.5664L108.691-67.7734L117.383-67.7734L117.383-81.0547Q117.383-90.332 112.598-95.0928Q107.812-99.8535 98.3398-99.8535L35.0586-99.8535Q25.5859-99.8535 20.8252-95.1172Q16.0645-90.3809 16.0645-81.0547L16.0645-17.3828Q16.0645-8.00781 20.8252-3.27148Q25.5859 1.46484 35.0586 1.46484ZM65.625 29.541L128.906 29.541Q138.33 29.541 143.115 24.7803Q147.9 20.0195 147.9 10.6934L147.9-52.9297Q147.9-62.2559 143.115-67.0166Q138.33-71.7773 128.906-71.7773L65.625-71.7773Q56.1523-71.7773 51.3916-67.041Q46.6309-62.3047 46.6309-52.9297L46.6309 10.6934Q46.6309 20.0684 51.3916 24.8047Q56.1523 29.541 65.625 29.541ZM65.8203 20.8984Q60.6934 20.8984 57.9834 18.2129Q55.2734 15.5273 55.2734 10.2539L55.2734-52.4902Q55.2734-57.7637 57.9834-60.4492Q60.6934-63.1348 65.8203-63.1348L128.76-63.1348Q133.74-63.1348 136.499-60.4492Q139.258-57.7637 139.258-52.4902L139.258 10.2539Q139.258 15.5273 136.499 18.2129Q133.74 20.8984 128.76 20.8984ZM72.188-37.4362Q75.7586-37.3937 78.3303-39.9866Q80.902-42.5795 80.902-46.2351Q80.902-49.8482 78.3303-52.3986Q75.7586-54.9491 72.188-54.9491Q68.5749-54.9491 66.0033-52.3986Q63.4316-49.8482 63.4316-46.2351Q63.4316-42.5795 66.0033-40.0291Q68.5749-37.4787 72.188-37.4362ZM122.431-37.4362Q126.002-37.3937 128.552-39.9866Q131.103-42.5795 131.103-46.2351Q131.103-49.8482 128.552-52.3986Q126.002-54.9491 122.431-54.9491Q118.818-54.9491 116.225-52.3986Q113.632-49.8482 113.632-46.2351Q113.632-42.5795 116.225-40.0291Q118.818-37.4787 122.431-37.4362ZM97.3097-12.2295Q100.838-12.2295 103.431-14.8224Q106.024-17.4153 106.024-21.071Q106.024-24.6415 103.431-27.192Q100.838-29.7424 97.3097-29.7424Q93.6541-29.7424 91.1037-27.192Q88.5533-24.6415 88.5533-21.071Q88.5533-17.4153 91.1037-14.8224Q93.6541-12.2295 97.3097-12.2295ZM72.188 12.8922Q75.7586 12.8922 78.3303 10.3205Q80.902 7.74883 80.902 4.13573Q80.902 0.522631 78.3303-2.04905Q75.7586-4.62072 72.188-4.62072Q68.5749-4.62072 66.0245-2.04905Q63.4741 0.522631 63.4741 4.13573Q63.4741 7.74883 66.0245 10.3205Q68.5749 12.8922 72.188 12.8922ZM122.431 12.8922Q126.002 12.8922 128.552 10.3205Q131.103 7.74883 131.103 4.13573Q131.103 0.522631 128.552-2.04905Q126.002-4.62072 122.431-4.62072Q118.818-4.62072 116.268-2.04905Q113.717 0.522631 113.717 4.13573Q113.717 7.74883 116.268 10.3205Q118.818 12.8922 122.431 12.8922Z"/>
  </g>
  <g id="Light-L" transform="matrix(1 0 0 1 1072.18 1556)">
   <path d="M34.0332 1.2207L49.5605 1.2207L49.5605-5.41992L34.2285-5.41992Q28.5645-5.41992 25.6104-8.34961Q22.6562-11.2793 22.6562-16.9922L22.6562-79.8828Q22.6562-85.5957 25.6104-88.5254Q28.5645-91.4551 34.2285-91.4551L97.2168-91.4551Q102.686-91.4551 105.688-88.5254Q108.691-85.5957 108.691-79.8828L108.691-68.457L115.332-68.457L115.332-80.2246Q115.332-88.9648 110.791-93.5303Q106.25-98.0957 97.3633-98.0957L34.0332-98.0957Q25.0977-98.0957 20.5811-93.5791Q16.0645-89.0625 16.0645-80.2246L16.0645-16.6504Q16.0645-7.8125 20.5811-3.2959Q25.0977 1.2207 34.0332 1.2207ZM64.5996 27.7832L127.93 27.7832Q136.768 27.7832 141.309 23.2422Q145.85 18.7012 145.85 9.91211L145.85-53.6133Q145.85-62.3535 141.309-66.9189Q136.768-71.4844 127.93-71.4844L64.5996-71.4844Q55.6641-71.4844 51.1475-66.9678Q46.6309-62.4512 46.6309-53.6133L46.6309 9.91211Q46.6309 18.75 51.1475 23.2666Q55.6641 27.7832 64.5996 27.7832ZM64.7949 21.1914Q59.1309 21.1914 56.1768 18.2617Q53.2227 15.332 53.2227 9.57031L53.2227-53.2715Q53.2227-58.9844 56.1768-61.9141Q59.1309-64.8438 64.7949-64.8438L127.783-64.8438Q133.203-64.8438 136.23-61.9141Q139.258-58.9844 139.258-53.2715L139.258 9.57031Q139.258 15.332 136.23 18.2617Q133.203 21.1914 127.783 21.1914ZM70.5566-39.0625Q74.0234-39.0137 76.5381-41.5527Q79.0527-44.0918 79.0527-47.6562Q79.0527-51.1719 76.5381-53.6377Q74.0234-56.1035 70.5566-56.1035Q67.041-56.1035 64.5264-53.6377Q62.0117-51.1719 62.0117-47.6562Q62.0117-44.0918 64.5264-41.6016Q67.041-39.1113 70.5566-39.0625ZM122.07-39.0625Q125.586-39.0137 128.052-41.5527Q130.518-44.0918 130.518-47.6562Q130.518-51.1719 128.052-53.6377Q125.586-56.1035 122.07-56.1035Q118.555-56.1035 116.016-53.6377Q113.477-51.1719 113.477-47.6562Q113.477-44.0918 116.016-41.6016Q118.555-39.1113 122.07-39.0625ZM96.3379-13.1836Q99.7559-13.1836 102.295-15.6982Q104.834-18.2129 104.834-21.8262Q104.834-25.293 102.295-27.7832Q99.7559-30.2734 96.3379-30.2734Q92.7734-30.2734 90.2832-27.7832Q87.793-25.293 87.793-21.8262Q87.793-18.2129 90.2832-15.6982Q92.7734-13.1836 96.3379-13.1836ZM70.5566 12.5488Q74.0234 12.5488 76.5137 10.0342Q79.0039 7.51953 79.0039 4.05273Q79.0039 0.537109 76.5137-1.97754Q74.0234-4.49219 70.5566-4.49219Q67.041-4.49219 64.5508-1.97754Q62.0605 0.537109 62.0605 4.05273Q62.0605 7.51953 64.5508 10.0342Q67.041 12.5488 70.5566 12.5488ZM122.07 12.5488Q125.586 12.5488 128.052 10.0342Q130.518 7.51953 130.518 4.05273Q130.518 0.537109 128.052-1.97754Q125.586-4.49219 122.07-4.49219Q118.555-4.49219 116.064-1.97754Q113.574 0.537109 113.574 4.05273Q113.574 7.51953 116.064 10.0342Q118.555 12.5488 122.07 12.5488Z"/>
  </g>
  <g id="Thin-L" transform="matrix(1 0 0 1 776.784 1556)">
   <path d="M32.666 0.878906L47.8027 0.878906L47.8027-3.07617L32.8125-3.07617Q26.5137-3.07617 23.2666-6.34766Q20.0195-9.61914 20.0195-15.918L20.0195-78.9551Q20.0195-85.2539 23.2666-88.5254Q26.5137-91.7969 32.8125-91.7969L95.8496-91.7969Q102.002-91.7969 105.347-88.5254Q108.691-85.2539 108.691-78.9551L108.691-69.3359L112.646-69.3359L112.646-79.1504Q112.646-87.1582 108.423-91.4551Q104.199-95.752 95.9961-95.752L32.666-95.752Q24.5117-95.752 20.2881-91.5283Q16.0645-87.3047 16.0645-79.1504L16.0645-15.7227Q16.0645-7.56836 20.2881-3.34473Q24.5117 0.878906 32.666 0.878906ZM63.2324 25.4883L126.562 25.4883Q134.766 25.4883 138.989 21.2158Q143.213 16.9434 143.213 8.88672L143.213-54.4922Q143.213-62.5488 138.989-66.8213Q134.766-71.0938 126.562-71.0938L63.2324-71.0938Q55.0781-71.0938 50.8545-66.8701Q46.6309-62.6465 46.6309-54.4922L46.6309 8.88672Q46.6309 17.041 50.8545 21.2646Q55.0781 25.4883 63.2324 25.4883ZM63.3789 21.582Q57.0801 21.582 53.833 18.335Q50.5859 15.0879 50.5859 8.69141L50.5859-54.2969Q50.5859-60.6445 53.833-63.8916Q57.0801-67.1387 63.3789-67.1387L126.416-67.1387Q132.568-67.1387 135.913-63.8916Q139.258-60.6445 139.258-54.2969L139.258 8.69141Q139.258 15.0879 135.913 18.335Q132.568 21.582 126.416 21.582ZM68.3105-41.2109Q71.6797-41.1621 74.0967-43.6279Q76.5137-46.0938 76.5137-49.5117Q76.5137-52.9297 74.0967-55.2734Q71.6797-57.6172 68.3105-57.6172Q64.9902-57.6172 62.5488-55.2734Q60.1074-52.9297 60.1074-49.5117Q60.1074-46.0938 62.5488-43.7012Q64.9902-41.3086 68.3105-41.2109ZM121.533-41.2109Q124.854-41.1621 127.271-43.6279Q129.688-46.0938 129.688-49.5117Q129.688-52.9297 127.271-55.2734Q124.854-57.6172 121.533-57.6172Q118.164-57.6172 115.723-55.2734Q113.281-52.9297 113.281-49.5117Q113.281-46.0938 115.723-43.7012Q118.164-41.3086 121.533-41.2109ZM94.9219-14.4531Q98.2422-14.4531 100.684-16.8945Q103.125-19.3359 103.125-22.8027Q103.125-26.123 100.684-28.54Q98.2422-30.957 94.9219-30.957Q91.5527-30.957 89.1357-28.54Q86.7188-26.123 86.7188-22.8027Q86.7188-19.3359 89.1357-16.8945Q91.5527-14.4531 94.9219-14.4531ZM68.3105 12.0605Q71.6797 12.0605 74.0967 9.66797Q76.5137 7.27539 76.5137 3.85742Q76.5137 0.488281 74.0967-1.92871Q71.6797-4.3457 68.3105-4.3457Q64.9902-4.3457 62.5488-1.92871Q60.1074 0.488281 60.1074 3.85742Q60.1074 7.27539 62.5488 9.66797Q64.9902 12.0605 68.3105 12.0605ZM121.533 12.0605Q124.854 12.0605 127.271 9.66797Q129.688 7.27539 129.688 3.85742Q129.688 0.488281 127.271-1.92871Q124.854-4.3457 121.533-4.3457Q118.164-4.3457 115.747-1.92871Q113.33 0.488281 113.33 3.85742Q113.33 7.27539 115.747 9.66797Q118.164 12.0605 121.533 12.0605Z"/>
  </g>
  <g id="Ultralight-L" transform="matrix(1 0 0 1 480.78 1556)">
   <path d="M31.9824 0.683594L46.9238 0.683594L46.9238-1.85547L32.1289-1.85547Q25.4395-1.85547 22.0215-5.29785Q18.6035-8.74023 18.6035-15.3809L18.6035-78.4668Q18.6035-85.1074 22.0215-88.5498Q25.4395-91.9922 32.1289-91.9922L95.2148-91.9922Q101.611-91.9922 105.151-88.5498Q108.691-85.1074 108.691-78.4668L108.691-69.8242L111.23-69.8242L111.23-78.6133Q111.23-86.2305 107.178-90.3809Q103.125-94.5312 95.3613-94.5312L31.9824-94.5312Q24.1699-94.5312 20.1172-90.4541Q16.0645-86.377 16.0645-78.6133L16.0645-15.2344Q16.0645-7.4707 20.1172-3.39355Q24.1699 0.683594 31.9824 0.683594ZM62.5488 24.3164L125.928 24.3164Q133.691 24.3164 137.744 20.166Q141.797 16.0156 141.797 8.39844L141.797-54.9316Q141.797-62.5977 137.744-66.7236Q133.691-70.8496 125.928-70.8496L62.5488-70.8496Q54.7363-70.8496 50.6836-66.7969Q46.6309-62.7441 46.6309-54.9316L46.6309 8.39844Q46.6309 16.1621 50.6836 20.2393Q54.7363 24.3164 62.5488 24.3164ZM62.6953 21.7773Q56.0059 21.7773 52.5879 18.3594Q49.1699 14.9414 49.1699 8.25195L49.1699-54.7852Q49.1699-61.4746 52.5879-64.8926Q56.0059-68.3105 62.6953-68.3105L125.781-68.3105Q132.178-68.3105 135.718-64.8926Q139.258-61.4746 139.258-54.7852L139.258 8.25195Q139.258 14.9414 135.718 18.3594Q132.178 21.7773 125.781 21.7773ZM67.2363-42.334Q70.5078-42.2852 72.9004-44.6777Q75.293-47.0703 75.293-50.4395Q75.293-53.8086 72.9004-56.1035Q70.5078-58.3984 67.2363-58.3984Q63.9648-58.3984 61.5723-56.1035Q59.1797-53.8086 59.1797-50.4395Q59.1797-47.0703 61.5723-44.7266Q63.9648-42.3828 67.2363-42.334ZM121.289-42.334Q124.609-42.2852 126.953-44.6777Q129.297-47.0703 129.297-50.4395Q129.297-53.8086 126.953-56.1035Q124.609-58.3984 121.289-58.3984Q117.969-58.3984 115.576-56.1035Q113.184-53.8086 113.184-50.4395Q113.184-47.0703 115.576-44.7266Q117.969-42.3828 121.289-42.334ZM94.2871-15.0879Q97.5586-15.0879 99.9512-17.5049Q102.344-19.9219 102.344-23.291Q102.344-26.5625 99.9512-28.9062Q97.5586-31.25 94.2871-31.25Q90.9668-31.25 88.5986-28.9062Q86.2305-26.5625 86.2305-23.291Q86.2305-19.9219 88.5986-17.5049Q90.9668-15.0879 94.2871-15.0879ZM67.2363 11.8652Q70.5078 11.8652 72.876 9.49707Q75.2441 7.12891 75.2441 3.80859Q75.2441 0.439453 72.876-1.9043Q70.5078-4.24805 67.2363-4.24805Q63.9648-4.24805 61.5967-1.9043Q59.2285 0.439453 59.2285 3.80859Q59.2285 7.12891 61.5967 9.49707Q63.9648 11.8652 67.2363 11.8652ZM121.289 11.8652Q124.609 11.8652 126.953 9.49707Q129.297 7.12891 129.297 3.80859Q129.297 0.439453 126.953-1.9043Q124.609-4.24805 121.289-4.24805Q117.969-4.24805 115.601-1.9043Q113.232 0.439453 113.232 3.80859Q113.232 7.12891 115.601 9.49707Q117.969 11.8652 121.289 11.8652Z"/>
  </g>
  <g id="Black-M" transform="matrix(1 0 0 1 2862.55 1126)">
   <path d="M31.5918-3.32031L47.7051-3.32031L47.7051-20.6543L34.2285-20.6543Q31.9824-20.6543 30.8838-21.6797Q29.7852-22.7051 29.7852-25.1465L29.7852-71.2402Q29.7852-73.6816 30.8838-74.6826Q31.9824-75.6836 34.2285-75.6836L80.3711-75.6836Q82.6172-75.6836 83.7158-74.6826Q84.8145-73.6816 84.8145-71.2402L84.8145-60.9863L102.148-60.9863L102.148-73.877Q102.148-82.959 97.0947-87.9883Q92.041-93.0176 83.0078-93.0176L31.5918-93.0176Q22.5586-93.0176 17.5049-87.9883Q12.4512-82.959 12.4512-73.877L12.4512-22.4609Q12.4512-13.4277 17.5049-8.37402Q22.5586-3.32031 31.5918-3.32031ZM58.7402 22.6562L110.107 22.6562Q119.189 22.6562 124.219 17.6025Q129.248 12.5488 129.248 3.51562L129.248-47.9492Q129.248-56.9824 124.219-62.0361Q119.189-67.0898 110.107-67.0898L58.7402-67.0898Q49.6582-67.0898 44.6045-62.0361Q39.5508-56.9824 39.5508-47.9492L39.5508 3.51562Q39.5508 12.5488 44.6045 17.6025Q49.6582 22.6562 58.7402 22.6562ZM61.377 5.32227Q59.1309 5.32227 58.0078 4.29688Q56.8848 3.27148 56.8848 0.830078L56.8848-45.2637Q56.8848-47.7051 58.0078-48.7061Q59.1309-49.707 61.377-49.707L107.471-49.707Q109.717-49.707 110.815-48.7061Q111.914-47.7051 111.914-45.2637L111.914 0.830078Q111.914 3.27148 110.815 4.29688Q109.717 5.32227 107.471 5.32227ZM68.6035-31.3477Q71.2891-31.2988 73.2666-33.2764Q75.2441-35.2539 75.2441-37.9883Q75.2441-40.7715 73.2666-42.749Q71.2891-44.7266 68.6035-44.7266Q65.7715-44.7266 63.7939-42.7734Q61.8164-40.8203 61.8164-37.9883Q61.8164-35.3027 63.7939-33.3496Q65.7715-31.3965 68.6035-31.3477ZM100.293-31.3477Q103.027-31.2988 105.029-33.2764Q107.031-35.2539 107.031-37.9883Q107.031-40.8203 105.054-42.7734Q103.076-44.7266 100.293-44.7266Q97.5586-44.7266 95.5811-42.7734Q93.6035-40.8203 93.6035-37.9883Q93.6035-35.3027 95.5811-33.3496Q97.5586-31.3965 100.293-31.3477ZM84.4727-15.4297Q87.207-15.4297 89.1602-17.4316Q91.1133-19.4336 91.1133-22.2168Q91.1133-24.9023 89.1357-26.8311Q87.1582-28.7598 84.4727-28.7598Q81.6895-28.7598 79.7363-26.8555Q77.7832-24.9512 77.7832-22.2168Q77.7832-19.3848 79.7119-17.4072Q81.6406-15.4297 84.4727-15.4297ZM68.5547 0.488281Q71.2891 0.488281 73.2422-1.48926Q75.1953-3.4668 75.1953-6.25Q75.1953-8.98438 73.2178-10.9619Q71.2402-12.9395 68.5547-12.9395Q65.7227-12.9395 63.7695-10.9863Q61.8164-9.0332 61.8164-6.25Q61.8164-3.4668 63.7695-1.48926Q65.7227 0.488281 68.5547 0.488281ZM100.293 0.488281Q103.076 0.488281 105.054-1.48926Q107.031-3.4668 107.031-6.25Q107.031-9.0332 105.029-10.9863Q103.027-12.9395 100.293-12.9395Q97.5586-12.9395 95.6055-10.9863Q93.6523-9.0332 93.6523-6.25Q93.6523-3.4668 95.6055-1.48926Q97.5586 0.488281 100.293 0.488281Z"/>
  </g>
  <g id="Heavy-M" transform="matrix(1 0 0 1 2567.43 1126)">
   <path d="M30.7129-4.10156L45.8984-4.10156L45.8984-19.1895L32.7148-19.1895Q30.127-19.1895 28.833-20.4346Q27.5391-21.6797 27.5391-24.4629L27.5391-71.1426Q27.5391-73.877 28.833-75.0977Q30.127-76.3184 32.7148-76.3184L79.4922-76.3184Q82.0801-76.3184 83.374-75.0977Q84.668-73.877 84.668-71.1426L84.668-60.791L99.7559-60.791L99.7559-73.2422Q99.7559-81.9336 94.9951-86.6943Q90.2344-91.4551 81.543-91.4551L30.7129-91.4551Q21.9727-91.4551 17.2119-86.7188Q12.4512-81.9824 12.4512-73.2422L12.4512-22.3145Q12.4512-13.623 17.2119-8.8623Q21.9727-4.10156 30.7129-4.10156ZM57.0312 21.0938L107.861 21.0938Q116.553 21.0938 121.313 16.333Q126.074 11.5723 126.074 2.88086L126.074-48.0957Q126.074-56.7871 121.313-61.5479Q116.553-66.3086 107.861-66.3086L57.0312-66.3086Q48.291-66.3086 43.5059-61.5479Q38.7207-56.7871 38.7207-48.0957L38.7207 2.88086Q38.7207 11.5723 43.5059 16.333Q48.291 21.0938 57.0312 21.0938ZM59.082 5.95703Q56.4941 5.95703 55.1758 4.71191Q53.8574 3.4668 53.8574 0.732422L53.8574-45.9473Q53.8574-48.7305 55.1758-49.9512Q56.4941-51.1719 59.082-51.1719L105.811-51.1719Q108.35-51.1719 109.668-49.9512Q110.986-48.7305 110.986-45.9473L110.986 0.732422Q110.986 3.4668 109.668 4.71191Q108.35 5.95703 105.811 5.95703ZM65.8203-32.4219Q68.5547-32.4219 70.5566-34.3994Q72.5586-36.377 72.5586-39.1602Q72.5586-41.9922 70.5566-43.9453Q68.5547-45.8984 65.8203-45.8984Q63.0371-45.8984 61.0352-43.9453Q59.0332-41.9922 59.0332-39.1602Q59.0332-36.377 61.0352-34.4238Q63.0371-32.4707 65.8203-32.4219ZM99.0723-32.4219Q101.807-32.4219 103.809-34.3994Q105.811-36.377 105.811-39.1602Q105.811-41.9922 103.809-43.9453Q101.807-45.8984 99.0723-45.8984Q96.2891-45.8984 94.2871-43.9453Q92.2852-41.9922 92.2852-39.1602Q92.2852-36.377 94.2871-34.4238Q96.2891-32.4707 99.0723-32.4219ZM82.4707-15.7715Q85.2051-15.7715 87.1826-17.7734Q89.1602-19.7754 89.1602-22.6074Q89.1602-25.293 87.1582-27.2461Q85.1562-29.1992 82.4707-29.1992Q79.6387-29.1992 77.6855-27.2705Q75.7324-25.3418 75.7324-22.6074Q75.7324-19.7754 77.6855-17.7734Q79.6387-15.7715 82.4707-15.7715ZM65.7715 0.927734Q68.5547 0.927734 70.5322-1.09863Q72.5098-3.125 72.5098-5.85938Q72.5098-8.64258 70.5078-10.6201Q68.5059-12.5977 65.7715-12.5977Q62.9883-12.5977 61.0107-10.6445Q59.0332-8.69141 59.0332-5.85938Q59.0332-3.07617 61.0107-1.07422Q62.9883 0.927734 65.7715 0.927734ZM99.0723 0.927734Q101.807 0.927734 103.809-1.09863Q105.811-3.125 105.811-5.85938Q105.811-8.69141 103.809-10.6445Q101.807-12.5977 99.0723-12.5977Q96.2891-12.5977 94.3115-10.6445Q92.334-8.69141 92.334-5.85938Q92.334-3.125 94.3115-1.09863Q96.2891 0.927734 99.0723 0.927734Z"/>
  </g>
  <g id="Bold-M" transform="matrix(1 0 0 1 2272.5 1126)">
   <path d="M29.6875-4.98047L43.9453-4.98047L43.9453-17.5781L31.0547-17.5781Q28.125-17.5781 26.5869-19.0674Q25.0488-20.5566 25.0488-23.6816L25.0488-70.9961Q25.0488-74.1211 26.5869-75.6104Q28.125-77.0996 31.0547-77.0996L78.5156-77.0996Q81.4453-77.0996 82.9834-75.6104Q84.5215-74.1211 84.5215-70.9961L84.5215-60.5469L97.1191-60.5469L97.1191-72.5586Q97.1191-80.8594 92.6758-85.2783Q88.2324-89.6973 79.9316-89.6973L29.6875-89.6973Q21.3379-89.6973 16.8945-85.2783Q12.4512-80.8594 12.4512-72.5586L12.4512-22.1191Q12.4512-13.8184 16.8945-9.39941Q21.3379-4.98047 29.6875-4.98047ZM55.127 19.3359L105.322 19.3359Q113.672 19.3359 118.091 14.8926Q122.51 10.4492 122.51 2.19727L122.51-48.291Q122.51-56.543 118.091-60.9863Q113.672-65.4297 105.322-65.4297L55.127-65.4297Q46.7285-65.4297 42.2852-61.0107Q37.8418-56.5918 37.8418-48.291L37.8418 2.19727Q37.8418 10.498 42.2852 14.917Q46.7285 19.3359 55.127 19.3359ZM56.4941 6.73828Q53.5156 6.73828 51.9775 5.24902Q50.4395 3.75977 50.4395 0.634766L50.4395-46.7285Q50.4395-49.8535 51.9775-51.3184Q53.5156-52.7832 56.4941-52.7832L103.906-52.7832Q106.836-52.7832 108.374-51.3184Q109.912-49.8535 109.912-46.7285L109.912 0.634766Q109.912 3.75977 108.374 5.24902Q106.836 6.73828 103.906 6.73828ZM62.7441-33.6914Q65.5273-33.6426 67.5293-35.6445Q69.5312-37.6465 69.5312-40.4785Q69.5312-43.3105 67.5293-45.3125Q65.5273-47.3145 62.7441-47.3145Q59.9121-47.3145 57.9102-45.3369Q55.9082-43.3594 55.9082-40.4785Q55.9082-37.6953 57.9102-35.7178Q59.9121-33.7402 62.7441-33.6914ZM97.7051-33.6914Q100.488-33.6426 102.515-35.6445Q104.541-37.6465 104.541-40.4785Q104.541-43.3594 102.515-45.3369Q100.488-47.3145 97.7051-47.3145Q94.9219-47.3145 92.8955-45.3369Q90.8691-43.3594 90.8691-40.4785Q90.8691-37.6953 92.8955-35.7178Q94.9219-33.7402 97.7051-33.6914ZM80.2734-16.1621Q83.0078-16.1621 85.0098-18.1885Q87.0117-20.2148 87.0117-23.0469Q87.0117-25.7812 84.9854-27.7588Q82.959-29.7363 80.2734-29.7363Q77.3926-29.7363 75.415-27.7832Q73.4375-25.8301 73.4375-23.0469Q73.4375-20.166 75.415-18.1641Q77.3926-16.1621 80.2734-16.1621ZM62.7441 1.36719Q65.5273 1.36719 67.5049-0.65918Q69.4824-2.68555 69.4824-5.46875Q69.4824-8.25195 67.4805-10.2539Q65.4785-12.2559 62.7441-12.2559Q59.9121-12.2559 57.9346-10.2539Q55.957-8.25195 55.957-5.46875Q55.957-2.68555 57.9346-0.65918Q59.9121 1.36719 62.7441 1.36719ZM97.7051 1.36719Q100.488 1.36719 102.515-0.65918Q104.541-2.68555 104.541-5.46875Q104.541-8.25195 102.515-10.2539Q100.488-12.2559 97.7051-12.2559Q94.9219-12.2559 92.9199-10.2539Q90.918-8.25195 90.918-5.46875Q90.918-2.68555 92.9199-0.65918Q94.9219 1.36719 97.7051 1.36719Z"/>
  </g>
  <g id="Semibold-M" transform="matrix(1 0 0 1 1977.01 1126)">
   <path d="M29.0039-5.56641L42.5293-5.56641L42.5293-16.4551L29.8828-16.4551Q26.709-16.4551 25.0244-18.1152Q23.3398-19.7754 23.3398-23.1445L23.3398-70.8984Q23.3398-74.2676 25.0244-75.9277Q26.709-77.5879 29.8828-77.5879L77.832-77.5879Q81.0059-77.5879 82.7148-75.9277Q84.4238-74.2676 84.4238-70.8984L84.4238-60.3516L95.3125-60.3516L95.3125-72.0215Q95.3125-80.0781 91.0889-84.2773Q86.8652-88.4766 78.7598-88.4766L29.0039-88.4766Q20.8984-88.4766 16.6748-84.2773Q12.4512-80.0781 12.4512-72.0215L12.4512-21.9727Q12.4512-13.9648 16.6748-9.76562Q20.8984-5.56641 29.0039-5.56641ZM53.7598 18.1152L103.564 18.1152Q111.621 18.1152 115.845 13.8916Q120.068 9.66797 120.068 1.66016L120.068-48.3887Q120.068-56.3965 115.845-60.5957Q111.621-64.7949 103.564-64.7949L53.7598-64.7949Q45.6543-64.7949 41.4307-60.5957Q37.207-56.3965 37.207-48.3887L37.207 1.66016Q37.207 9.7168 41.4307 13.916Q45.6543 18.1152 53.7598 18.1152ZM54.6875 7.22656Q51.4648 7.22656 49.7803 5.56641Q48.0957 3.90625 48.0957 0.537109L48.0957-47.2168Q48.0957-50.5859 49.7803-52.2461Q51.4648-53.9062 54.6875-53.9062L102.588-53.9062Q105.811-53.9062 107.495-52.2461Q109.18-50.5859 109.18-47.2168L109.18 0.537109Q109.18 3.90625 107.495 5.56641Q105.811 7.22656 102.588 7.22656ZM60.5957-34.4727Q63.3789-34.4727 65.4053-36.4746Q67.4316-38.4766 67.4316-41.4062Q67.4316-44.2383 65.4053-46.2158Q63.3789-48.1934 60.5957-48.1934Q57.7637-48.1934 55.7373-46.2158Q53.7109-44.2383 53.7109-41.4062Q53.7109-38.5254 55.7373-36.5234Q57.7637-34.5215 60.5957-34.4727ZM96.7773-34.4727Q99.5117-34.4727 101.538-36.4746Q103.564-38.4766 103.564-41.4062Q103.564-44.2383 101.538-46.2158Q99.5117-48.1934 96.7773-48.1934Q93.8965-48.1934 91.8701-46.2158Q89.8438-44.2383 89.8438-41.4062Q89.8438-38.5254 91.8701-36.5234Q93.8965-34.5215 96.7773-34.4727ZM78.6621-16.4551Q81.4453-16.4551 83.4473-18.457Q85.4492-20.459 85.4492-23.3398Q85.4492-26.0742 83.4473-28.0762Q81.4453-30.0781 78.6621-30.0781Q75.8301-30.0781 73.8525-28.1006Q71.875-26.123 71.875-23.3398Q71.875-20.459 73.8525-18.457Q75.8301-16.4551 78.6621-16.4551ZM60.5957 1.70898Q63.3789 1.70898 65.3809-0.317383Q67.3828-2.34375 67.3828-5.17578Q67.3828-7.95898 65.3809-9.98535Q63.3789-12.0117 60.5957-12.0117Q57.7637-12.0117 55.7617-10.0098Q53.7598-8.00781 53.7598-5.17578Q53.7598-2.29492 55.7617-0.292969Q57.7637 1.70898 60.5957 1.70898ZM96.7773 1.70898Q99.5117 1.70898 101.538-0.317383Q103.564-2.34375 103.564-5.17578Q103.564-8.00781 101.538-10.0098Q99.5117-12.0117 96.7773-12.0117Q93.8965-12.0117 91.9189-10.0098Q89.9414-8.00781 89.9414-5.17578Q89.9414-2.34375 91.9189-0.317383Q93.8965 1.70898 96.7773 1.70898Z"/>
  </g>
  <g id="Medium-M" transform="matrix(1 0 0 1 1681.22 1126)">
   <path d="M28.4668-6.05469L41.5039-6.05469L41.5039-15.625L29.0039-15.625Q25.6348-15.625 23.8281-17.4072Q22.0215-19.1895 22.0215-22.7539L22.0215-70.8496Q22.0215-74.4141 23.8281-76.1963Q25.6348-77.9785 29.0039-77.9785L77.3438-77.9785Q80.7129-77.9785 82.5195-76.1963Q84.3262-74.4141 84.3262-70.8496L84.3262-60.2051L93.8965-60.2051L93.8965-71.6797Q93.8965-79.4922 89.8438-83.5205Q85.791-87.5488 77.9297-87.5488L28.4668-87.5488Q20.5566-87.5488 16.5039-83.5205Q12.4512-79.4922 12.4512-71.6797L12.4512-21.9238Q12.4512-14.0625 16.5039-10.0586Q20.5566-6.05469 28.4668-6.05469ZM52.7832 17.1875L102.197 17.1875Q110.107 17.1875 114.16 13.1348Q118.213 9.08203 118.213 1.31836L118.213-48.4863Q118.213-56.25 114.16-60.2783Q110.107-64.3066 102.197-64.3066L52.7832-64.3066Q44.873-64.3066 40.8203-60.3027Q36.7676-56.2988 36.7676-48.4863L36.7676 1.31836Q36.7676 9.13086 40.8203 13.1592Q44.873 17.1875 52.7832 17.1875ZM53.3203 7.61719Q49.9023 7.61719 48.1201 5.83496Q46.3379 4.05273 46.3379 0.488281L46.3379-47.6074Q46.3379-51.1719 48.1201-52.9541Q49.9023-54.7363 53.3203-54.7363L101.611-54.7363Q104.98-54.7363 106.812-52.9541Q108.643-51.1719 108.643-47.6074L108.643 0.488281Q108.643 4.05273 106.812 5.83496Q104.98 7.61719 101.611 7.61719ZM58.9844-35.1562Q61.8164-35.1074 63.8184-37.1582Q65.8203-39.209 65.8203-42.0898Q65.8203-44.9219 63.8184-46.8994Q61.8164-48.877 58.9844-48.877Q56.1523-48.877 54.126-46.8994Q52.0996-44.9219 52.0996-42.0898Q52.0996-39.209 54.126-37.207Q56.1523-35.2051 58.9844-35.1562ZM95.9961-35.1562Q98.8281-35.1074 100.854-37.1582Q102.881-39.209 102.881-42.0898Q102.881-44.9219 100.854-46.8994Q98.8281-48.877 95.9961-48.877Q93.2129-48.877 91.1621-46.8994Q89.1113-44.9219 89.1113-42.0898Q89.1113-39.209 91.1621-37.207Q93.2129-35.2051 95.9961-35.1562ZM77.4902-16.6504Q80.2734-16.6504 82.2998-18.6768Q84.3262-20.7031 84.3262-23.584Q84.3262-26.3672 82.2998-28.3691Q80.2734-30.3711 77.4902-30.3711Q74.6582-30.3711 72.6562-28.3691Q70.6543-26.3672 70.6543-23.584Q70.6543-20.6543 72.6562-18.6523Q74.6582-16.6504 77.4902-16.6504ZM58.9844 1.95312Q61.7676 1.95312 63.7939-0.0976562Q65.8203-2.14844 65.8203-4.98047Q65.8203-7.8125 63.7939-9.81445Q61.7676-11.8164 58.9844-11.8164Q56.1523-11.8164 54.126-9.81445Q52.0996-7.8125 52.0996-4.98047Q52.0996-2.14844 54.126-0.0976562Q56.1523 1.95312 58.9844 1.95312ZM95.9961 1.95312Q98.8281 1.95312 100.854-0.0976562Q102.881-2.14844 102.881-4.98047Q102.881-7.8125 100.854-9.81445Q98.8281-11.8164 95.9961-11.8164Q93.2129-11.8164 91.1865-9.81445Q89.1602-7.8125 89.1602-4.98047Q89.1602-2.14844 91.1865-0.0976562Q93.2129 1.95312 95.9961 1.95312Z"/>
  </g>
  <g id="Regular-M" transform="matrix(1 0 0 1 1385.73 1126)">
   <path d="M27.7832-6.64062L40.1367-6.64062L40.1367-14.502L27.8809-14.502Q24.2188-14.502 22.2656-16.4551Q20.3125-18.4082 20.3125-22.2168L20.3125-70.752Q20.3125-74.5605 22.2656-76.5137Q24.2188-78.4668 27.8809-78.4668L76.6602-78.4668Q80.2734-78.4668 82.251-76.5137Q84.2285-74.5605 84.2285-70.752L84.2285-60.0586L92.0898-60.0586L92.0898-71.1914Q92.0898-78.7109 88.2568-82.5195Q84.4238-86.3281 76.8066-86.3281L27.7832-86.3281Q20.1172-86.3281 16.2842-82.5439Q12.4512-78.7598 12.4512-71.1914L12.4512-21.7773Q12.4512-14.209 16.2842-10.4248Q20.1172-6.64062 27.7832-6.64062ZM51.4648 15.9668L100.488 15.9668Q108.105 15.9668 111.938 12.1582Q115.771 8.34961 115.771 0.830078L115.771-48.584Q115.771-56.1035 111.938-59.9121Q108.105-63.7207 100.488-63.7207L51.4648-63.7207Q43.7988-63.7207 39.9658-59.9365Q36.1328-56.1523 36.1328-48.584L36.1328 0.830078Q36.1328 8.39844 39.9658 12.1826Q43.7988 15.9668 51.4648 15.9668ZM51.5625 8.10547Q47.9004 8.10547 45.9473 6.15234Q43.9941 4.19922 43.9941 0.390625L43.9941-48.1445Q43.9941-51.9531 45.9473-53.9062Q47.9004-55.8594 51.5625-55.8594L100.342-55.8594Q103.955-55.8594 105.933-53.9062Q107.91-51.9531 107.91-48.1445L107.91 0.390625Q107.91 4.19922 105.933 6.15234Q103.955 8.10547 100.342 8.10547ZM56.8897-36.0112Q59.6952-35.9687 61.7355-38.009Q63.7759-40.0493 63.7759-42.9823Q63.7759-45.8303 61.7355-47.8281Q59.6952-49.826 56.8897-49.826Q54.0417-49.826 52.0014-47.8281Q49.9611-45.8303 49.9611-42.9823Q49.9611-40.0493 52.0014-38.0515Q54.0417-36.0537 56.8897-36.0112ZM95.1036-36.0112Q97.909-35.9687 99.9494-38.009Q101.99-40.0493 101.99-42.9823Q101.99-45.8303 99.9494-47.8281Q97.909-49.826 95.1036-49.826Q92.2556-49.826 90.194-47.8281Q88.1324-45.8303 88.1324-42.9823Q88.1324-40.0493 90.194-38.0515Q92.2556-36.0537 95.1036-36.0112ZM75.9754-16.883Q78.7809-16.883 80.8212-18.9233Q82.8615-20.9637 82.8615-23.8542Q82.8615-26.6596 80.8212-28.6787Q78.7809-30.6978 75.9754-30.6978Q73.1274-30.6978 71.1083-28.6787Q69.0892-26.6596 69.0892-23.8542Q69.0892-20.9637 71.1083-18.9233Q73.1274-16.883 75.9754-16.883ZM56.8897 2.24518Q59.6952 2.24518 61.7355 0.204837Q63.7759-1.8355 63.7759-4.68347Q63.7759-7.53145 61.7355-9.55053Q59.6952-11.5696 56.8897-11.5696Q54.0417-11.5696 52.0227-9.55053Q50.0036-7.53145 50.0036-4.68347Q50.0036-1.8355 52.0227 0.204837Q54.0417 2.24518 56.8897 2.24518ZM95.1036 2.24518Q97.909 2.24518 99.9494 0.204837Q101.99-1.8355 101.99-4.68347Q101.99-7.53145 99.9494-9.55053Q97.909-11.5696 95.1036-11.5696Q92.2556-11.5696 90.2365-9.55053Q88.2174-7.53145 88.2174-4.68347Q88.2174-1.8355 90.2365 0.204837Q92.2556 2.24518 95.1036 2.24518Z"/>
  </g>
  <g id="Light-M" transform="matrix(1 0 0 1 1089.93 1126)">
   <path d="M26.8555-6.88477L38.9648-6.88477L38.9648-12.8906L26.9531-12.8906Q22.8027-12.8906 20.6543-15.0635Q18.5059-17.2363 18.5059-21.4844L18.5059-70.1172Q18.5059-74.3652 20.6543-76.5381Q22.8027-78.7109 26.9531-78.7109L75.7812-78.7109Q79.7852-78.7109 82.0068-76.5381Q84.2285-74.3652 84.2285-70.1172L84.2285-60.6934L90.2832-60.6934L90.2832-70.459Q90.2832-77.4902 86.6455-81.1035Q83.0078-84.7168 75.8789-84.7168L26.8555-84.7168Q19.6777-84.7168 16.0645-81.1279Q12.4512-77.5391 12.4512-70.459L12.4512-21.1426Q12.4512-14.0625 16.0645-10.4736Q19.6777-6.88477 26.8555-6.88477ZM50.5371 14.4043L99.6094 14.4043Q106.689 14.4043 110.327 10.791Q113.965 7.17773 113.965 0.146484L113.965-49.1699Q113.965-56.2012 110.327-59.8145Q106.689-63.4277 99.6094-63.4277L50.5371-63.4277Q43.3594-63.4277 39.7461-59.8389Q36.1328-56.25 36.1328-49.1699L36.1328 0.146484Q36.1328 7.22656 39.7461 10.8154Q43.3594 14.4043 50.5371 14.4043ZM50.6348 8.34961Q46.4844 8.34961 44.3359 6.20117Q42.1875 4.05273 42.1875-0.195312L42.1875-48.8281Q42.1875-53.0762 44.3359-55.249Q46.4844-57.4219 50.6348-57.4219L99.4629-57.4219Q103.467-57.4219 105.688-55.249Q107.91-53.0762 107.91-48.8281L107.91-0.195312Q107.91 4.05273 105.688 6.20117Q103.467 8.34961 99.4629 8.34961ZM55.4199-37.4512Q58.1543-37.4023 60.1318-39.3799Q62.1094-41.3574 62.1094-44.1895Q62.1094-46.9727 60.1318-48.9014Q58.1543-50.8301 55.4199-50.8301Q52.6367-50.8301 50.6836-48.9014Q48.7305-46.9727 48.7305-44.1895Q48.7305-41.3574 50.6836-39.4287Q52.6367-37.5 55.4199-37.4512ZM94.7266-37.4512Q97.4609-37.4023 99.4385-39.3799Q101.416-41.3574 101.416-44.1895Q101.416-46.9727 99.4385-48.9014Q97.4609-50.8301 94.7266-50.8301Q91.9922-50.8301 89.9902-48.9014Q87.9883-46.9727 87.9883-44.1895Q87.9883-41.3574 89.9902-39.4287Q91.9922-37.5 94.7266-37.4512ZM75.0488-17.7246Q77.7832-17.7246 79.7607-19.7021Q81.7383-21.6797 81.7383-24.5117Q81.7383-27.1973 79.7607-29.1504Q77.7832-31.1035 75.0488-31.1035Q72.3145-31.1035 70.3613-29.1504Q68.4082-27.1973 68.4082-24.5117Q68.4082-21.6797 70.3613-19.7021Q72.3145-17.7246 75.0488-17.7246ZM55.4199 1.95312Q58.1543 1.95312 60.1074-0.0244141Q62.0605-2.00195 62.0605-4.78516Q62.0605-7.51953 60.1074-9.47266Q58.1543-11.4258 55.4199-11.4258Q52.6367-11.4258 50.6836-9.47266Q48.7305-7.51953 48.7305-4.78516Q48.7305-2.00195 50.6836-0.0244141Q52.6367 1.95312 55.4199 1.95312ZM94.7266 1.95312Q97.4609 1.95312 99.4385-0.0244141Q101.416-2.00195 101.416-4.78516Q101.416-7.51953 99.4385-9.47266Q97.4609-11.4258 94.7266-11.4258Q91.9922-11.4258 90.0391-9.47266Q88.0859-7.51953 88.0859-4.78516Q88.0859-2.00195 90.0391-0.0244141Q91.9922 1.95312 94.7266 1.95312Z"/>
  </g>
  <g id="Thin-M" transform="matrix(1 0 0 1 794.411 1126)">
   <path d="M25.5859-7.22656L37.4512-7.22656L37.4512-10.791L25.7324-10.791Q20.9961-10.791 18.5547-13.2568Q16.1133-15.7227 16.1133-20.5078L16.1133-69.2871Q16.1133-74.1211 18.5547-76.5625Q20.9961-79.0039 25.7324-79.0039L74.6094-79.0039Q79.1992-79.0039 81.7139-76.5625Q84.2285-74.1211 84.2285-69.2871L84.2285-61.5234L87.8906-61.5234L87.8906-69.4824Q87.8906-75.8789 84.5459-79.248Q81.2012-82.6172 74.707-82.6172L25.5859-82.6172Q19.1406-82.6172 15.7959-79.2725Q12.4512-75.9277 12.4512-69.4824L12.4512-20.3125Q12.4512-13.8672 15.7959-10.5469Q19.1406-7.22656 25.5859-7.22656ZM49.3164 12.3535L98.4375 12.3535Q104.883 12.3535 108.228 8.95996Q111.572 5.56641 111.572-0.78125L111.572-49.9512Q111.572-56.3477 108.228-59.7168Q104.883-63.0859 98.4375-63.0859L49.3164-63.0859Q42.8223-63.0859 39.4775-59.7656Q36.1328-56.4453 36.1328-49.9512L36.1328-0.78125Q36.1328 5.66406 39.4775 9.00879Q42.8223 12.3535 49.3164 12.3535ZM49.4141 8.69141Q44.6777 8.69141 42.2363 6.25Q39.7949 3.80859 39.7949-0.976562L39.7949-49.7559Q39.7949-54.541 42.2363-57.0068Q44.6777-59.4727 49.4141-59.4727L98.291-59.4727Q102.881-59.4727 105.396-57.0068Q107.91-54.541 107.91-49.7559L107.91-0.976562Q107.91 3.80859 105.396 6.25Q102.881 8.69141 98.291 8.69141ZM53.4668-39.4531Q56.0547-39.4043 57.9834-41.2842Q59.9121-43.1641 59.9121-45.8984Q59.9121-48.5352 57.9834-50.415Q56.0547-52.2949 53.4668-52.2949Q50.8301-52.2949 48.9502-50.415Q47.0703-48.5352 47.0703-45.8984Q47.0703-43.1641 48.9502-41.333Q50.8301-39.502 53.4668-39.4531ZM94.3359-39.4531Q96.9727-39.4043 98.8281-41.2842Q100.684-43.1641 100.684-45.8984Q100.684-48.5352 98.8281-50.415Q96.9727-52.2949 94.3359-52.2949Q91.6992-52.2949 89.7949-50.415Q87.8906-48.5352 87.8906-45.8984Q87.8906-43.1641 89.7949-41.333Q91.6992-39.502 94.3359-39.4531ZM73.877-18.8477Q76.5137-18.8477 78.418-20.752Q80.3223-22.6562 80.3223-25.3906Q80.3223-28.0273 78.418-29.8828Q76.5137-31.7383 73.877-31.7383Q71.2402-31.7383 69.3848-29.8828Q67.5293-28.0273 67.5293-25.3906Q67.5293-22.6562 69.3848-20.752Q71.2402-18.8477 73.877-18.8477ZM53.4668 1.5625Q56.0547 1.5625 57.959-0.341797Q59.8633-2.24609 59.8633-4.88281Q59.8633-7.56836 57.959-9.42383Q56.0547-11.2793 53.4668-11.2793Q50.8301-11.2793 48.9502-9.42383Q47.0703-7.56836 47.0703-4.88281Q47.0703-2.24609 48.9502-0.341797Q50.8301 1.5625 53.4668 1.5625ZM94.3359 1.5625Q96.9727 1.5625 98.8281-0.341797Q100.684-2.24609 100.684-4.88281Q100.684-7.56836 98.8281-9.42383Q96.9727-11.2793 94.3359-11.2793Q91.6992-11.2793 89.7949-9.42383Q87.8906-7.56836 87.8906-4.88281Q87.8906-2.24609 89.7949-0.341797Q91.6992 1.5625 94.3359 1.5625Z"/>
  </g>
  <g id="Ultralight-M" transform="matrix(1 0 0 1 498.334 1126)">
   <path d="M24.9512-7.37305L36.6211-7.37305L36.6211-9.7168L25.0977-9.7168Q20.0195-9.7168 17.4316-12.3291Q14.8438-14.9414 14.8438-20.0195L14.8438-68.8965Q14.8438-73.9746 17.4316-76.5625Q20.0195-79.1504 25.0977-79.1504L73.9746-79.1504Q78.8574-79.1504 81.543-76.5625Q84.2285-73.9746 84.2285-68.8965L84.2285-61.9141L86.6211-61.9141L86.6211-68.9941Q86.6211-75.0488 83.4229-78.2959Q80.2246-81.543 74.0723-81.543L24.9512-81.543Q18.8477-81.543 15.6494-78.3447Q12.4512-75.1465 12.4512-68.9941L12.4512-19.9219Q12.4512-13.7695 15.6494-10.5713Q18.8477-7.37305 24.9512-7.37305ZM48.6816 11.2793L97.8027 11.2793Q103.906 11.2793 107.104 8.03223Q110.303 4.78516 110.303-1.26953L110.303-50.3418Q110.303-56.4453 107.104-59.668Q103.906-62.8906 97.8027-62.8906L48.6816-62.8906Q42.5293-62.8906 39.3311-59.6924Q36.1328-56.4941 36.1328-50.3418L36.1328-1.26953Q36.1328 4.83398 39.3311 8.05664Q42.5293 11.2793 48.6816 11.2793ZM48.7793 8.88672Q43.7012 8.88672 41.1133 6.29883Q38.5254 3.71094 38.5254-1.36719L38.5254-50.2441Q38.5254-55.3223 41.1133-57.9346Q43.7012-60.5469 48.7793-60.5469L97.6562-60.5469Q102.539-60.5469 105.225-57.9346Q107.91-55.3223 107.91-50.2441L107.91-1.36719Q107.91 3.71094 105.225 6.29883Q102.539 8.88672 97.6562 8.88672ZM52.4902-40.4297Q55.0293-40.3809 56.8848-42.2363Q58.7402-44.0918 58.7402-46.7773Q58.7402-49.3164 56.8848-51.1475Q55.0293-52.9785 52.4902-52.9785Q49.9023-52.9785 48.0469-51.1475Q46.1914-49.3164 46.1914-46.7773Q46.1914-44.0918 48.0469-42.2852Q49.9023-40.4785 52.4902-40.4297ZM94.0918-40.4297Q96.6797-40.3809 98.4863-42.2363Q100.293-44.0918 100.293-46.7773Q100.293-49.3164 98.4863-51.1475Q96.6797-52.9785 94.0918-52.9785Q91.5039-52.9785 89.6484-51.1475Q87.793-49.3164 87.793-46.7773Q87.793-44.0918 89.6484-42.2852Q91.5039-40.4785 94.0918-40.4297ZM73.291-19.4336Q75.8301-19.4336 77.71-21.3135Q79.5898-23.1934 79.5898-25.8301Q79.5898-28.3691 77.71-30.2246Q75.8301-32.0801 73.291-32.0801Q70.752-32.0801 68.8965-30.2246Q67.041-28.3691 67.041-25.8301Q67.041-23.1934 68.8965-21.3135Q70.752-19.4336 73.291-19.4336ZM52.4902 1.31836Q55.0293 1.31836 56.8604-0.537109Q58.6914-2.39258 58.6914-4.93164Q58.6914-7.51953 56.8604-9.375Q55.0293-11.2305 52.4902-11.2305Q49.9023-11.2305 48.0469-9.375Q46.1914-7.51953 46.1914-4.93164Q46.1914-2.39258 48.0469-0.537109Q49.9023 1.31836 52.4902 1.31836ZM94.0918 1.31836Q96.6797 1.31836 98.4863-0.537109Q100.293-2.39258 100.293-4.93164Q100.293-7.51953 98.4863-9.375Q96.6797-11.2305 94.0918-11.2305Q91.5039-11.2305 89.6729-9.375Q87.8418-7.51953 87.8418-4.93164Q87.8418-2.39258 89.6729-0.537109Q91.5039 1.31836 94.0918 1.31836Z"/>
  </g>
  <g id="Black-S" transform="matrix(1 0 0 1 2877.44 696)">
   <path d="M25-10.0098L37.8418-10.0098L37.8418-24.1699L27.2461-24.1699Q25.5859-24.1699 24.7559-24.9268Q23.9258-25.6836 23.9258-27.4902L23.9258-63.4277Q23.9258-65.2832 24.7559-66.0156Q25.5859-66.748 27.2461-66.748L63.1836-66.748Q64.8926-66.748 65.6982-66.0156Q66.5039-65.2832 66.5039-63.4277L66.5039-55.5176L80.6641-55.5176L80.6641-65.6738Q80.6641-72.8516 76.6357-76.8799Q72.6074-80.9082 65.4297-80.9082L25-80.9082Q17.8223-80.9082 13.7939-76.8799Q9.76562-72.8516 9.76562-65.6738L9.76562-25.2441Q9.76562-18.0664 13.7939-14.0381Q17.8223-10.0098 25-10.0098ZM46.4844 10.498L86.9141 10.498Q94.0918 10.498 98.1201 6.46973Q102.148 2.44141 102.148-4.73633L102.148-45.166Q102.148-52.3438 98.1201-56.3721Q94.0918-60.4004 86.9141-60.4004L46.4844-60.4004Q39.3066-60.4004 35.2783-56.3721Q31.25-52.3438 31.25-45.166L31.25-4.73633Q31.25 2.44141 35.2783 6.46973Q39.3066 10.498 46.4844 10.498ZM48.7305-3.66211Q47.0703-3.66211 46.2402-4.41895Q45.4102-5.17578 45.4102-6.98242L45.4102-42.9199Q45.4102-44.7754 46.2402-45.5078Q47.0703-46.2402 48.7305-46.2402L84.668-46.2402Q86.377-46.2402 87.1826-45.5078Q87.9883-44.7754 87.9883-42.9199L87.9883-6.98242Q87.9883-5.17578 87.1826-4.41895Q86.377-3.66211 84.668-3.66211ZM54.4922-31.8848Q56.6406-31.8359 58.1543-33.3984Q59.668-34.9609 59.668-37.1094Q59.668-39.2578 58.1543-40.7959Q56.6406-42.334 54.4922-42.334Q52.2949-42.334 50.7568-40.8203Q49.2188-39.3066 49.2188-37.1094Q49.2188-35.0098 50.7568-33.4717Q52.2949-31.9336 54.4922-31.8848ZM78.9551-31.8848Q81.0547-31.8359 82.6172-33.3984Q84.1797-34.9609 84.1797-37.1094Q84.1797-39.3066 82.6416-40.8203Q81.1035-42.334 78.9551-42.334Q76.7578-42.334 75.2441-40.8203Q73.7305-39.3066 73.7305-37.1094Q73.7305-35.0098 75.2441-33.4717Q76.7578-31.9336 78.9551-31.8848ZM66.748-19.6777Q68.8477-19.6777 70.3857-21.2158Q71.9238-22.7539 71.9238-24.9512Q71.9238-27.0508 70.3857-28.5645Q68.8477-30.0781 66.748-30.0781Q64.5508-30.0781 63.0371-28.5645Q61.5234-27.0508 61.5234-24.9512Q61.5234-22.7051 63.0371-21.1914Q64.5508-19.6777 66.748-19.6777ZM54.4434-7.37305Q56.5918-7.37305 58.1055-8.93555Q59.6191-10.498 59.6191-12.6465Q59.6191-14.7461 58.1055-16.2842Q56.5918-17.8223 54.4434-17.8223Q52.2949-17.8223 50.7568-16.2842Q49.2188-14.7461 49.2188-12.6465Q49.2188-10.4492 50.7568-8.91113Q52.2949-7.37305 54.4434-7.37305ZM78.9551-7.37305Q81.1035-7.37305 82.6416-8.93555Q84.1797-10.498 84.1797-12.6465Q84.1797-14.7461 82.6172-16.2842Q81.0547-17.8223 78.9551-17.8223Q76.8066-17.8223 75.293-16.2842Q73.7793-14.7461 73.7793-12.6465Q73.7793-10.498 75.293-8.93555Q76.8066-7.37305 78.9551-7.37305Z"/>
  </g>
  <g id="Heavy-S" transform="matrix(1 0 0 1 2581.98 696)">
   <path d="M24.3652-10.6445L36.4746-10.6445L36.4746-23.1445L26.0742-23.1445Q24.1699-23.1445 23.2178-24.0479Q22.2656-24.9512 22.2656-27.002L22.2656-63.4277Q22.2656-65.4785 23.2178-66.3818Q24.1699-67.2852 26.0742-67.2852L62.5488-67.2852Q64.502-67.2852 65.4541-66.3818Q66.4062-65.4785 66.4062-63.4277L66.4062-55.2734L78.8574-55.2734L78.8574-65.2344Q78.8574-72.168 75.0488-75.9521Q71.2402-79.7363 64.3066-79.7363L24.3652-79.7363Q17.3828-79.7363 13.5742-75.9521Q9.76562-72.168 9.76562-65.2344L9.76562-25.1953Q9.76562-18.2617 13.5742-14.4531Q17.3828-10.6445 24.3652-10.6445ZM45.1172 9.32617L85.0586 9.32617Q92.041 9.32617 95.8496 5.54199Q99.6582 1.75781 99.6582-5.17578L99.6582-45.2148Q99.6582-52.1484 95.8496-55.957Q92.041-59.7656 85.0586-59.7656L45.1172-59.7656Q38.1836-59.7656 34.375-55.957Q30.5664-52.1484 30.5664-45.2148L30.5664-5.17578Q30.5664 1.75781 34.375 5.54199Q38.1836 9.32617 45.1172 9.32617ZM46.875-3.125Q44.9707-3.125 43.9941-4.05273Q43.0176-4.98047 43.0176-6.98242L43.0176-43.4082Q43.0176-45.5078 43.9941-46.3867Q44.9707-47.2656 46.875-47.2656L83.3496-47.2656Q85.2539-47.2656 86.2061-46.3867Q87.1582-45.5078 87.1582-43.4082L87.1582-6.98242Q87.1582-4.98047 86.2061-4.05273Q85.2539-3.125 83.3496-3.125ZM52.3438-32.666Q54.4922-32.6172 56.0547-34.1797Q57.6172-35.7422 57.6172-37.9883Q57.6172-40.1367 56.0547-41.6992Q54.4922-43.2617 52.3438-43.2617Q50.1465-43.2617 48.584-41.6992Q47.0215-40.1367 47.0215-37.9883Q47.0215-35.791 48.584-34.2529Q50.1465-32.7148 52.3438-32.666ZM77.9297-32.666Q80.0781-32.6172 81.665-34.1797Q83.252-35.7422 83.252-37.9883Q83.252-40.1367 81.6895-41.6992Q80.127-43.2617 77.9297-43.2617Q75.7812-43.2617 74.2188-41.6992Q72.6562-40.1367 72.6562-37.9883Q72.6562-35.791 74.2188-34.2529Q75.7812-32.7148 77.9297-32.666ZM65.1367-19.8242Q67.2852-19.8242 68.8477-21.3867Q70.4102-22.9492 70.4102-25.1953Q70.4102-27.3438 68.8477-28.8818Q67.2852-30.4199 65.1367-30.4199Q62.9883-30.4199 61.4258-28.8818Q59.8633-27.3438 59.8633-25.1953Q59.8633-22.9492 61.4014-21.3867Q62.9395-19.8242 65.1367-19.8242ZM52.2949-6.98242Q54.4434-6.98242 56.0059-8.54492Q57.5684-10.1074 57.5684-12.3047Q57.5684-14.4531 56.0059-16.0156Q54.4434-17.5781 52.2949-17.5781Q50.1465-17.5781 48.584-16.0156Q47.0215-14.4531 47.0215-12.3047Q47.0215-10.0586 48.584-8.52051Q50.1465-6.98242 52.2949-6.98242ZM77.9297-6.98242Q80.127-6.98242 81.6895-8.54492Q83.252-10.1074 83.252-12.3047Q83.252-14.4531 81.665-16.0156Q80.0781-17.5781 77.9297-17.5781Q75.7812-17.5781 74.2432-16.0156Q72.7051-14.4531 72.7051-12.3047Q72.7051-10.1074 74.2432-8.54492Q75.7812-6.98242 77.9297-6.98242Z"/>
  </g>
  <g id="Bold-S" transform="matrix(1 0 0 1 2286.66 696)">
   <path d="M23.6328-11.377L34.9609-11.377L34.9609-21.9727L24.8047-21.9727Q22.6562-21.9727 21.5088-23.0713Q20.3613-24.1699 20.3613-26.4648L20.3613-63.4277Q20.3613-65.7227 21.5088-66.7969Q22.6562-67.8711 24.8047-67.8711L61.8652-67.8711Q64.0137-67.8711 65.1367-66.7969Q66.2598-65.7227 66.2598-63.4277L66.2598-54.9805L76.8555-54.9805L76.8555-64.7461Q76.8555-71.3867 73.291-74.9268Q69.7266-78.4668 63.0371-78.4668L23.6328-78.4668Q16.8945-78.4668 13.3301-74.9268Q9.76562-71.3867 9.76562-64.7461L9.76562-25.1465Q9.76562-18.457 13.3301-14.917Q16.8945-11.377 23.6328-11.377ZM43.6523 8.05664L83.0566 8.05664Q89.7461 8.05664 93.3105 4.5166Q96.875 0.976562 96.875-5.71289L96.875-45.3125Q96.875-51.9531 93.3105-55.4932Q89.7461-59.0332 83.0566-59.0332L43.6523-59.0332Q36.9141-59.0332 33.3496-55.4932Q29.7852-51.9531 29.7852-45.3125L29.7852-5.71289Q29.7852 0.976562 33.3496 4.5166Q36.9141 8.05664 43.6523 8.05664ZM44.8242-2.53906Q42.6758-2.53906 41.5283-3.6377Q40.3809-4.73633 40.3809-7.03125L40.3809-43.9941Q40.3809-46.2891 41.5283-47.3633Q42.6758-48.4375 44.8242-48.4375L81.8848-48.4375Q84.0332-48.4375 85.1562-47.3633Q86.2793-46.2891 86.2793-43.9941L86.2793-7.03125Q86.2793-4.73633 85.1562-3.6377Q84.0332-2.53906 81.8848-2.53906ZM49.9023-33.5449Q52.0996-33.4961 53.6621-35.083Q55.2246-36.6699 55.2246-38.916Q55.2246-41.1133 53.6621-42.6758Q52.0996-44.2383 49.9023-44.2383Q47.6562-44.2383 46.0938-42.7002Q44.5312-41.1621 44.5312-38.916Q44.5312-36.6699 46.0938-35.1318Q47.6562-33.5938 49.9023-33.5449ZM76.8066-33.5449Q79.0039-33.4961 80.5908-35.083Q82.1777-36.6699 82.1777-38.916Q82.1777-41.1621 80.5908-42.7002Q79.0039-44.2383 76.8066-44.2383Q74.6094-44.2383 73.0225-42.7002Q71.4355-41.1621 71.4355-38.916Q71.4355-36.6699 73.0225-35.1318Q74.6094-33.5938 76.8066-33.5449ZM63.3301-20.0684Q65.5762-20.0684 67.1387-21.6553Q68.7012-23.2422 68.7012-25.4883Q68.7012-27.6855 67.1387-29.2236Q65.5762-30.7617 63.3301-30.7617Q61.1328-30.7617 59.5703-29.2236Q58.0078-27.6855 58.0078-25.4883Q58.0078-23.1934 59.5703-21.6309Q61.1328-20.0684 63.3301-20.0684ZM49.8535-6.54297Q52.0996-6.54297 53.6621-8.12988Q55.2246-9.7168 55.2246-11.9629Q55.2246-14.1602 53.6621-15.7227Q52.0996-17.2852 49.8535-17.2852Q47.6562-17.2852 46.0938-15.7227Q44.5312-14.1602 44.5312-11.9629Q44.5312-9.7168 46.0938-8.12988Q47.6562-6.54297 49.8535-6.54297ZM76.8066-6.54297Q79.0039-6.54297 80.5908-8.12988Q82.1777-9.7168 82.1777-11.9629Q82.1777-14.1602 80.5908-15.7227Q79.0039-17.2852 76.8066-17.2852Q74.6094-17.2852 73.0469-15.7227Q71.4844-14.1602 71.4844-11.9629Q71.4844-9.7168 73.0469-8.12988Q74.6094-6.54297 76.8066-6.54297Z"/>
  </g>
  <g id="Semibold-S" transform="matrix(1 0 0 1 1990.9 696)">
   <path d="M23.0957-11.8652L33.8867-11.8652L33.8867-21.1914L23.877-21.1914Q21.5332-21.1914 20.2881-22.3877Q19.043-23.584 19.043-26.0742L19.043-63.3789Q19.043-65.8691 20.2881-67.0654Q21.5332-68.2617 23.877-68.2617L61.3281-68.2617Q63.6719-68.2617 64.917-67.0654Q66.1621-65.8691 66.1621-63.3789L66.1621-54.7363L75.4883-54.7363L75.4883-64.3555Q75.4883-70.8496 72.0947-74.2188Q68.7012-77.5879 62.1094-77.5879L23.0957-77.5879Q16.5527-77.5879 13.1592-74.2188Q9.76562-70.8496 9.76562-64.3555L9.76562-25.0977Q9.76562-18.6035 13.1592-15.2344Q16.5527-11.8652 23.0957-11.8652ZM42.5781 7.17773L81.6406 7.17773Q88.1836 7.17773 91.5771 3.80859Q94.9707 0.439453 94.9707-6.05469L94.9707-45.3125Q94.9707-51.8066 91.5771-55.1758Q88.1836-58.5449 81.6406-58.5449L42.5781-58.5449Q36.0352-58.5449 32.6416-55.1758Q29.248-51.8066 29.248-45.3125L29.248-6.05469Q29.248 0.439453 32.6416 3.80859Q36.0352 7.17773 42.5781 7.17773ZM43.3594-2.14844Q41.0645-2.14844 39.8193-3.34473Q38.5742-4.54102 38.5742-7.03125L38.5742-44.3359Q38.5742-46.8262 39.8193-48.0225Q41.0645-49.2188 43.3594-49.2188L80.8594-49.2188Q83.2031-49.2188 84.4238-48.0225Q85.6445-46.8262 85.6445-44.3359L85.6445-7.03125Q85.6445-4.54102 84.4238-3.34473Q83.2031-2.14844 80.8594-2.14844ZM48.2422-34.1309Q50.4395-34.082 52.0264-35.6934Q53.6133-37.3047 53.6133-39.5508Q53.6133-41.748 52.0264-43.3594Q50.4395-44.9707 48.2422-44.9707Q45.9961-44.9707 44.3848-43.3838Q42.7734-41.7969 42.7734-39.5508Q42.7734-37.3047 44.3848-35.7422Q45.9961-34.1797 48.2422-34.1309ZM76.0254-34.1309Q78.2227-34.082 79.8584-35.6934Q81.4941-37.3047 81.4941-39.5508Q81.4941-41.7969 79.8584-43.3838Q78.2227-44.9707 76.0254-44.9707Q73.8281-44.9707 72.2168-43.3838Q70.6055-41.7969 70.6055-39.5508Q70.6055-37.3047 72.2168-35.7422Q73.8281-34.1797 76.0254-34.1309ZM62.1094-20.166Q64.3555-20.166 65.9424-21.7773Q67.5293-23.3887 67.5293-25.6836Q67.5293-27.8809 65.9424-29.4434Q64.3555-31.0059 62.1094-31.0059Q59.8633-31.0059 58.3008-29.4434Q56.7383-27.8809 56.7383-25.6836Q56.7383-23.3887 58.3008-21.7773Q59.8633-20.166 62.1094-20.166ZM48.1934-6.25Q50.4395-6.25 52.002-7.83691Q53.5645-9.42383 53.5645-11.6699Q53.5645-13.916 52.002-15.5029Q50.4395-17.0898 48.1934-17.0898Q45.9961-17.0898 44.3848-15.5029Q42.7734-13.916 42.7734-11.6699Q42.7734-9.42383 44.3848-7.83691Q45.9961-6.25 48.1934-6.25ZM76.0254-6.25Q78.2227-6.25 79.8584-7.83691Q81.4941-9.42383 81.4941-11.6699Q81.4941-13.916 79.8584-15.5029Q78.2227-17.0898 76.0254-17.0898Q73.8281-17.0898 72.2412-15.5029Q70.6543-13.916 70.6543-11.6699Q70.6543-9.42383 72.2412-7.83691Q73.8281-6.25 76.0254-6.25Z"/>
  </g>
  <g id="Medium-S" transform="matrix(1 0 0 1 1694.92 696)">
   <path d="M22.7051-12.2559L33.0566-12.2559L33.0566-20.5566L23.1934-20.5566Q20.752-20.5566 19.4092-21.8506Q18.0664-23.1445 18.0664-25.7812L18.0664-63.3789Q18.0664-66.0156 19.4092-67.3096Q20.752-68.6035 23.1934-68.6035L60.9863-68.6035Q63.4277-68.6035 64.7705-67.3096Q66.1133-66.0156 66.1133-63.3789L66.1133-54.5898L74.4141-54.5898L74.4141-64.1113Q74.4141-70.459 71.1426-73.6816Q67.8711-76.9043 61.4746-76.9043L22.7051-76.9043Q16.3086-76.9043 13.0371-73.6816Q9.76562-70.459 9.76562-64.1113L9.76562-25.0488Q9.76562-18.7012 13.0371-15.4785Q16.3086-12.2559 22.7051-12.2559ZM41.7969 6.49414L80.5664 6.49414Q86.9629 6.49414 90.2344 3.27148Q93.5059 0.0488281 93.5059-6.29883L93.5059-45.3613Q93.5059-51.709 90.2344-54.9316Q86.9629-58.1543 80.5664-58.1543L41.7969-58.1543Q35.4004-58.1543 32.1289-54.9316Q28.8574-51.709 28.8574-45.3613L28.8574-6.29883Q28.8574 0.0488281 32.1289 3.27148Q35.4004 6.49414 41.7969 6.49414ZM42.2852-1.80664Q39.8438-1.80664 38.501-3.10059Q37.1582-4.39453 37.1582-7.03125L37.1582-44.6289Q37.1582-47.2656 38.501-48.5596Q39.8438-49.8535 42.2852-49.8535L80.0781-49.8535Q82.5195-49.8535 83.8623-48.5596Q85.2051-47.2656 85.2051-44.6289L85.2051-7.03125Q85.2051-4.39453 83.8623-3.10059Q82.5195-1.80664 80.0781-1.80664ZM46.9727-34.5703Q49.1699-34.5215 50.7812-36.1328Q52.3926-37.7441 52.3926-40.0391Q52.3926-42.2852 50.7812-43.8721Q49.1699-45.459 46.9727-45.459Q44.7266-45.459 43.0908-43.8721Q41.4551-42.2852 41.4551-40.0391Q41.4551-37.7441 43.0908-36.1816Q44.7266-34.6191 46.9727-34.5703ZM75.4395-34.5703Q77.6367-34.5215 79.2725-36.1328Q80.9082-37.7441 80.9082-40.0391Q80.9082-42.2852 79.2969-43.8721Q77.6855-45.459 75.4395-45.459Q73.1934-45.459 71.582-43.8721Q69.9707-42.2852 69.9707-40.0391Q69.9707-37.7441 71.582-36.1816Q73.1934-34.6191 75.4395-34.5703ZM61.1816-20.2637Q63.4277-20.2637 65.0391-21.8994Q66.6504-23.5352 66.6504-25.8301Q66.6504-28.0273 65.0391-29.6143Q63.4277-31.2012 61.1816-31.2012Q58.9355-31.2012 57.3486-29.6143Q55.7617-28.0273 55.7617-25.8301Q55.7617-23.5352 57.3486-21.8994Q58.9355-20.2637 61.1816-20.2637ZM46.9727-6.05469Q49.1699-6.05469 50.7568-7.6416Q52.3438-9.22852 52.3438-11.4746Q52.3438-13.7695 50.7568-15.3564Q49.1699-16.9434 46.9727-16.9434Q44.7266-16.9434 43.1152-15.3564Q41.5039-13.7695 41.5039-11.4746Q41.5039-9.22852 43.1152-7.6416Q44.7266-6.05469 46.9727-6.05469ZM75.4395-6.05469Q77.6855-6.05469 79.2969-7.6416Q80.9082-9.22852 80.9082-11.4746Q80.9082-13.7695 79.2725-15.3564Q77.6367-16.9434 75.4395-16.9434Q73.1934-16.9434 71.6064-15.3564Q70.0195-13.7695 70.0195-11.4746Q70.0195-9.22852 71.6064-7.6416Q73.1934-6.05469 75.4395-6.05469Z"/>
  </g>
  <g id="Regular-S" transform="matrix(1 0 0 1 1399.16 696)">
   <path d="M22.2168-12.7441L32.0312-12.7441L32.0312-19.7754L22.3145-19.7754Q19.6777-19.7754 18.2373-21.1914Q16.7969-22.6074 16.7969-25.3906L16.7969-63.3789Q16.7969-66.1621 18.2373-67.5781Q19.6777-68.9941 22.3145-68.9941L60.498-68.9941Q63.1348-68.9941 64.5752-67.5781Q66.0156-66.1621 66.0156-63.3789L66.0156-54.3945L73.0469-54.3945L73.0469-63.7695Q73.0469-69.9219 69.9463-72.9736Q66.8457-76.0254 60.5957-76.0254L22.2168-76.0254Q15.9668-76.0254 12.8662-72.9736Q9.76562-69.9219 9.76562-63.7695L9.76562-25Q9.76562-18.8477 12.8662-15.7959Q15.9668-12.7441 22.2168-12.7441ZM40.7715 5.61523L79.1504 5.61523Q85.4004 5.61523 88.501 2.56348Q91.6016-0.488281 91.6016-6.64062L91.6016-45.4102Q91.6016-51.5625 88.501-54.6143Q85.4004-57.666 79.1504-57.666L40.7715-57.666Q34.5215-57.666 31.4209-54.6143Q28.3203-51.5625 28.3203-45.4102L28.3203-6.64062Q28.3203-0.488281 31.4209 2.56348Q34.5215 5.61523 40.7715 5.61523ZM40.8691-1.41602Q38.2324-1.41602 36.792-2.83203Q35.3516-4.24805 35.3516-7.03125L35.3516-45.0195Q35.3516-47.8027 36.792-49.2188Q38.2324-50.6348 40.8691-50.6348L79.0527-50.6348Q81.6895-50.6348 83.1299-49.2188Q84.5703-47.8027 84.5703-45.0195L84.5703-7.03125Q84.5703-4.24805 83.1299-2.83203Q81.6895-1.41602 79.0527-1.41602ZM45.2775-35.1416Q47.5304-35.0991 49.1457-36.7356Q50.7609-38.3721 50.7609-40.6675Q50.7609-42.9629 49.1457-44.5569Q47.5304-46.1509 45.2775-46.1509Q43.0246-46.1509 41.3881-44.5569Q39.7516-42.9629 39.7516-40.6675Q39.7516-38.3721 41.3881-36.7781Q43.0246-35.1841 45.2775-35.1416ZM74.6499-35.1416Q76.9028-35.0991 78.5393-36.7356Q80.1758-38.3721 80.1758-40.6675Q80.1758-42.9629 78.5393-44.5569Q76.9028-46.1509 74.6499-46.1509Q72.397-46.1509 70.7605-44.5569Q69.124-42.9629 69.124-40.6675Q69.124-38.3721 70.7605-36.7781Q72.397-35.1841 74.6499-35.1416ZM59.9424-20.4342Q62.1953-20.4342 63.8318-22.0707Q65.4684-23.7072 65.4684-26.0026Q65.4684-28.2555 63.8318-29.8495Q62.1953-31.4435 59.9424-31.4435Q57.6896-31.4435 56.0743-29.8495Q54.459-28.2555 54.459-26.0026Q54.459-23.7072 56.0743-22.0707Q57.6896-20.4342 59.9424-20.4342ZM45.2775-5.72673Q47.5304-5.72673 49.1457-7.342Q50.7609-8.95726 50.7609-11.2526Q50.7609-13.548 49.1457-15.142Q47.5304-16.7361 45.2775-16.7361Q43.0246-16.7361 41.4094-15.142Q39.7941-13.548 39.7941-11.2526Q39.7941-8.95726 41.4094-7.342Q43.0246-5.72673 45.2775-5.72673ZM74.6499-5.72673Q76.9028-5.72673 78.5393-7.342Q80.1758-8.95726 80.1758-11.2526Q80.1758-13.548 78.5393-15.142Q76.9028-16.7361 74.6499-16.7361Q72.397-16.7361 70.7817-15.142Q69.1665-13.548 69.1665-11.2526Q69.1665-8.95726 70.7817-7.342Q72.397-5.72673 74.6499-5.72673Z"/>
  </g>
  <g id="Light-S" transform="matrix(1 0 0 1 1103.26 696)">
   <path d="M21.3867-12.9395L31.0059-12.9395L31.0059-18.3594L21.4844-18.3594Q18.457-18.3594 16.8213-19.9707Q15.1855-21.582 15.1855-24.7559L15.1855-62.8418Q15.1855-65.9668 16.8213-67.5781Q18.457-69.1895 21.4844-69.1895L59.7168-69.1895Q62.6953-69.1895 64.3555-67.5781Q66.0156-65.9668 66.0156-62.8418L66.0156-54.9316L71.4355-54.9316L71.4355-63.1348Q71.4355-68.8477 68.5303-71.7285Q65.625-74.6094 59.8145-74.6094L21.3867-74.6094Q15.5762-74.6094 12.6709-71.7285Q9.76562-68.8477 9.76562-63.1348L9.76562-24.4629Q9.76562-18.7012 12.6709-15.8203Q15.5762-12.9395 21.3867-12.9395ZM39.9414 4.24805L78.3691 4.24805Q84.1797 4.24805 87.085 1.34277Q89.9902-1.5625 89.9902-7.27539L89.9902-45.9473Q89.9902-51.6602 87.085-54.541Q84.1797-57.4219 78.3691-57.4219L39.9414-57.4219Q34.1309-57.4219 31.2256-54.541Q28.3203-51.6602 28.3203-45.9473L28.3203-7.27539Q28.3203-1.51367 31.2256 1.36719Q34.1309 4.24805 39.9414 4.24805ZM40.0391-1.17188Q37.0117-1.17188 35.376-2.7832Q33.7402-4.39453 33.7402-7.56836L33.7402-45.6543Q33.7402-48.7793 35.376-50.3906Q37.0117-52.002 40.0391-52.002L78.2715-52.002Q81.25-52.002 82.9102-50.3906Q84.5703-48.7793 84.5703-45.6543L84.5703-7.56836Q84.5703-4.39453 82.9102-2.7832Q81.25-1.17188 78.2715-1.17188ZM43.9941-36.4258Q46.1426-36.4258 47.7051-37.9883Q49.2676-39.5508 49.2676-41.7969Q49.2676-43.9941 47.7051-45.5322Q46.1426-47.0703 43.9941-47.0703Q41.7969-47.0703 40.21-45.5322Q38.623-43.9941 38.623-41.7969Q38.623-39.5508 40.21-38.0127Q41.7969-36.4746 43.9941-36.4258ZM74.3652-36.4258Q76.5625-36.4258 78.125-37.9883Q79.6875-39.5508 79.6875-41.7969Q79.6875-43.9941 78.125-45.5322Q76.5625-47.0703 74.3652-47.0703Q72.168-47.0703 70.5811-45.5322Q68.9941-43.9941 68.9941-41.7969Q68.9941-39.5508 70.5811-38.0127Q72.168-36.4746 74.3652-36.4258ZM59.1309-21.1914Q61.3281-21.1914 62.915-22.7783Q64.502-24.3652 64.502-26.6113Q64.502-28.7598 62.915-30.2979Q61.3281-31.8359 59.1309-31.8359Q56.9824-31.8359 55.4199-30.2979Q53.8574-28.7598 53.8574-26.6113Q53.8574-24.3652 55.4199-22.7783Q56.9824-21.1914 59.1309-21.1914ZM43.9941-6.00586Q46.1426-6.00586 47.7051-7.56836Q49.2676-9.13086 49.2676-11.3281Q49.2676-13.5254 47.7051-15.0879Q46.1426-16.6504 43.9941-16.6504Q41.7969-16.6504 40.2344-15.0879Q38.6719-13.5254 38.6719-11.3281Q38.6719-9.13086 40.2344-7.56836Q41.7969-6.00586 43.9941-6.00586ZM74.3652-6.00586Q76.5625-6.00586 78.125-7.56836Q79.6875-9.13086 79.6875-11.3281Q79.6875-13.5254 78.125-15.0879Q76.5625-16.6504 74.3652-16.6504Q72.168-16.6504 70.6055-15.0879Q69.043-13.5254 69.043-11.3281Q69.043-9.13086 70.6055-7.56836Q72.168-6.00586 74.3652-6.00586Z"/>
  </g>
  <g id="Thin-S" transform="matrix(1 0 0 1 807.594 696)">
   <path d="M20.3125-13.1836L29.6387-13.1836L29.6387-16.5039L20.4102-16.5039Q16.7969-16.5039 14.9414-18.3838Q13.0859-20.2637 13.0859-23.877L13.0859-62.0605Q13.0859-65.7227 14.9414-67.5781Q16.7969-69.4336 20.4102-69.4336L58.6914-69.4336Q62.1582-69.4336 64.0869-67.5781Q66.0156-65.7227 66.0156-62.0605L66.0156-55.6641L69.3359-55.6641L69.3359-62.2559Q69.3359-67.3828 66.6504-70.0684Q63.9648-72.7539 58.7891-72.7539L20.3125-72.7539Q15.0879-72.7539 12.4268-70.0928Q9.76562-67.4316 9.76562-62.2559L9.76562-23.6816Q9.76562-18.5547 12.4268-15.8691Q15.0879-13.1836 20.3125-13.1836ZM38.8672 2.39258L77.3438 2.39258Q82.5195 2.39258 85.2051-0.268555Q87.8906-2.92969 87.8906-8.10547L87.8906-46.6309Q87.8906-51.7578 85.2051-54.4434Q82.5195-57.1289 77.3438-57.1289L38.8672-57.1289Q33.6426-57.1289 30.9814-54.4678Q28.3203-51.8066 28.3203-46.6309L28.3203-8.10547Q28.3203-2.88086 30.9814-0.244141Q33.6426 2.39258 38.8672 2.39258ZM38.9648-0.878906Q35.3516-0.878906 33.4961-2.73438Q31.6406-4.58984 31.6406-8.25195L31.6406-46.4844Q31.6406-50.0977 33.4961-51.9775Q35.3516-53.8574 38.9648-53.8574L77.2461-53.8574Q80.7129-53.8574 82.6416-51.9775Q84.5703-50.0977 84.5703-46.4844L84.5703-8.25195Q84.5703-4.58984 82.6416-2.73438Q80.7129-0.878906 77.2461-0.878906ZM42.2852-38.1348Q44.2871-38.0859 45.8008-39.5996Q47.3145-41.1133 47.3145-43.2617Q47.3145-45.3613 45.8008-46.8262Q44.2871-48.291 42.2852-48.291Q40.1367-48.291 38.6475-46.8262Q37.1582-45.3613 37.1582-43.2617Q37.1582-41.1133 38.6475-39.6484Q40.1367-38.1836 42.2852-38.1348ZM73.9746-38.1348Q76.0254-38.0859 77.5391-39.5996Q79.0527-41.1133 79.0527-43.2617Q79.0527-45.3613 77.5391-46.8262Q76.0254-48.291 73.9746-48.291Q71.8262-48.291 70.3613-46.8262Q68.8965-45.3613 68.8965-43.2617Q68.8965-41.1133 70.3613-39.6484Q71.8262-38.1836 73.9746-38.1348ZM58.1055-22.1191Q60.2051-22.1191 61.6943-23.6572Q63.1836-25.1953 63.1836-27.3438Q63.1836-29.3945 61.6943-30.8838Q60.2051-32.373 58.1055-32.373Q56.0059-32.373 54.5166-30.8838Q53.0273-29.3945 53.0273-27.3438Q53.0273-25.1953 54.5166-23.6572Q56.0059-22.1191 58.1055-22.1191ZM42.2852-6.29883Q44.2871-6.29883 45.7764-7.78809Q47.2656-9.27734 47.2656-11.4258Q47.2656-13.5254 45.7764-15.0146Q44.2871-16.5039 42.2852-16.5039Q40.1367-16.5039 38.6475-15.0146Q37.1582-13.5254 37.1582-11.4258Q37.1582-9.27734 38.6475-7.78809Q40.1367-6.29883 42.2852-6.29883ZM73.9746-6.29883Q76.0254-6.29883 77.5391-7.78809Q79.0527-9.27734 79.0527-11.4258Q79.0527-13.5254 77.5391-15.0146Q76.0254-16.5039 73.9746-16.5039Q71.8262-16.5039 70.3613-15.0146Q68.8965-13.5254 68.8965-11.4258Q68.8965-9.27734 70.3613-7.78809Q71.8262-6.29883 73.9746-6.29883Z"/>
  </g>
  <g id="Ultralight-S" transform="matrix(1 0 0 1 511.445 696)">
   <path d="M19.7754-13.3301L28.9551-13.3301L28.9551-15.5762L19.873-15.5762Q15.9668-15.5762 13.9648-17.5781Q11.9629-19.5801 11.9629-23.4375L11.9629-61.7188Q11.9629-65.625 13.9648-67.6025Q15.9668-69.5801 19.873-69.5801L58.1543-69.5801Q61.8652-69.5801 63.9404-67.6025Q66.0156-65.625 66.0156-61.7188L66.0156-56.0059L68.2129-56.0059L68.2129-61.8164Q68.2129-66.6504 65.6738-69.2383Q63.1348-71.8262 58.252-71.8262L19.7754-71.8262Q14.8438-71.8262 12.3047-69.2627Q9.76562-66.6992 9.76562-61.8164L9.76562-23.3398Q9.76562-18.457 12.3047-15.8936Q14.8438-13.3301 19.7754-13.3301ZM38.3301 1.46484L76.8066 1.46484Q81.6895 1.46484 84.2285-1.09863Q86.7676-3.66211 86.7676-8.49609L86.7676-47.0215Q86.7676-51.8555 84.2285-54.4189Q81.6895-56.9824 76.8066-56.9824L38.3301-56.9824Q33.3984-56.9824 30.8594-54.4434Q28.3203-51.9043 28.3203-47.0215L28.3203-8.49609Q28.3203-3.56445 30.8594-1.0498Q33.3984 1.46484 38.3301 1.46484ZM38.4277-0.732422Q34.5215-0.732422 32.5195-2.70996Q30.5176-4.6875 30.5176-8.64258L30.5176-46.875Q30.5176-50.7324 32.5195-52.7588Q34.5215-54.7852 38.4277-54.7852L76.709-54.7852Q80.4199-54.7852 82.4951-52.7588Q84.5703-50.7324 84.5703-46.875L84.5703-8.64258Q84.5703-4.6875 82.4951-2.70996Q80.4199-0.732422 76.709-0.732422ZM41.3574-38.9648Q43.4082-38.916 44.8486-40.4053Q46.2891-41.8945 46.2891-43.9941Q46.2891-46.0938 44.8486-47.5098Q43.4082-48.9258 41.3574-48.9258Q39.3555-48.9258 37.8906-47.5098Q36.4258-46.0938 36.4258-43.9941Q36.4258-41.8945 37.8906-40.4541Q39.3555-39.0137 41.3574-38.9648ZM73.7793-38.9648Q75.8301-38.916 77.2705-40.4053Q78.7109-41.8945 78.7109-43.9941Q78.7109-46.0938 77.2705-47.5098Q75.8301-48.9258 73.7793-48.9258Q71.7285-48.9258 70.2637-47.5098Q68.7988-46.0938 68.7988-43.9941Q68.7988-41.8945 70.2637-40.4541Q71.7285-39.0137 73.7793-38.9648ZM57.6172-22.6562Q59.6191-22.6562 61.084-24.1455Q62.5488-25.6348 62.5488-27.7344Q62.5488-29.6875 61.084-31.1768Q59.6191-32.666 57.6172-32.666Q55.5176-32.666 54.0771-31.1768Q52.6367-29.6875 52.6367-27.7344Q52.6367-25.6348 54.0771-24.1455Q55.5176-22.6562 57.6172-22.6562ZM41.3574-6.49414Q43.4082-6.49414 44.8486-7.93457Q46.2891-9.375 46.2891-11.4746Q46.2891-13.5254 44.8486-14.9902Q43.4082-16.4551 41.3574-16.4551Q39.3555-16.4551 37.8906-14.9902Q36.4258-13.5254 36.4258-11.4746Q36.4258-9.375 37.8906-7.93457Q39.3555-6.49414 41.3574-6.49414ZM73.7793-6.49414Q75.8301-6.49414 77.2705-7.93457Q78.7109-9.375 78.7109-11.4746Q78.7109-13.5254 77.2705-14.9902Q75.8301-16.4551 73.7793-16.4551Q71.7285-16.4551 70.2881-14.9902Q68.8477-13.5254 68.8477-11.4746Q68.8477-9.375 70.2881-7.93457Q71.7285-6.49414 73.7793-6.49414Z"/>
  </g>
 </g>
</svg>
